<svg width="600" height="561" viewBox="0 0 600 561" fill="none" xmlns="http://www.w3.org/2000/svg">
<path d="M576.94 209.158C617.922 358.93 529.458 512.272 379.349 551.658C229.24 591.045 74.3309 501.56 33.349 351.789C-7.63296 202.018 80.8317 48.6756 230.94 9.28916C381.049 -30.0972 535.958 59.3873 576.94 209.158Z" fill="url(#paint0_linear_34:5696)"/>
<g clip-path="url(#clip0_34:5696)">
<path d="M457.698 182.585L463.622 172.988C464.055 172.283 464.736 171.758 465.537 171.51C466.338 171.262 467.204 171.309 467.972 171.642L472.369 173.556C473.102 173.873 473.699 174.429 474.058 175.13C474.417 175.831 474.516 176.633 474.338 177.398L473.957 179.072C473.826 179.633 473.551 180.153 473.159 180.582C472.766 181.011 472.268 181.335 471.712 181.523L462.477 184.648L458.721 201.944L449.134 200.03C451.655 194.063 454.514 188.239 457.698 182.585V182.585Z" fill="#CE7A63"/>
<path d="M485.147 226.116C485.147 226.116 455.76 221.108 456.782 215.757C457.805 210.405 461.057 191.988 461.057 191.988L453.21 189.716C453.21 189.716 438.692 216.37 444.051 223.216C449.409 230.063 464.904 239.032 472.873 239.481C477.743 239.705 480.17 236.805 485.147 226.116Z" fill="#FF6565"/>
<path d="M461.775 191.181L453.287 188.654L452.004 190.747L461.546 193.707L461.775 191.181Z" fill="#FF6565"/>
<path opacity="0.4" d="M461.775 191.181L453.287 188.654L452.004 190.747L461.546 193.707L461.775 191.181Z" fill="black"/>
<path opacity="0.1" d="M475.407 229.988L478.186 231.962L480.521 234.847C478.124 238.479 476.018 239.6 472.888 239.421C468.003 239.152 460.34 235.684 453.882 231.468C466.843 237.866 475.407 229.988 475.407 229.988Z" fill="black"/>
<path d="M458.401 185.754H460.95V180.627C460.95 180.563 460.976 180.502 461.022 180.457C461.068 180.413 461.13 180.387 461.194 180.387H471.346C471.411 180.387 471.473 180.413 471.519 180.457C471.565 180.502 471.591 180.563 471.591 180.627V185.754H474.155V180.627C474.155 179.897 473.859 179.197 473.332 178.682C472.806 178.166 472.091 177.876 471.346 177.876H461.194C460.449 177.876 459.735 178.166 459.208 178.682C458.681 179.197 458.385 179.897 458.385 180.627L458.401 185.754Z" fill="#FF6565"/>
<g opacity="0.4">
<path opacity="0.4" d="M458.401 185.754H460.95V180.627C460.95 180.563 460.976 180.502 461.022 180.457C461.068 180.413 461.13 180.387 461.194 180.387H471.346C471.411 180.387 471.473 180.413 471.519 180.457C471.565 180.502 471.591 180.563 471.591 180.627V185.754H474.155V180.627C474.155 179.897 473.859 179.197 473.332 178.682C472.806 178.166 472.091 177.876 471.346 177.876H461.194C460.449 177.876 459.735 178.166 459.208 178.682C458.681 179.197 458.385 179.897 458.385 180.627L458.401 185.754Z" fill="black"/>
</g>
<path d="M430.082 185.754H442.707V221.632H430.082C429.104 221.628 428.166 221.245 427.475 220.568C426.783 219.89 426.392 218.972 426.388 218.014V189.432C426.382 188.952 426.473 188.476 426.656 188.031C426.838 187.586 427.109 187.181 427.453 186.839C427.796 186.497 428.206 186.225 428.657 186.039C429.108 185.853 429.593 185.756 430.082 185.754Z" fill="#FF6565"/>
<path opacity="0.2" d="M430.082 185.754H442.707V221.632H430.082C429.104 221.628 428.166 221.245 427.475 220.568C426.783 219.89 426.392 218.972 426.388 218.014V189.432C426.382 188.952 426.473 188.476 426.656 188.031C426.838 187.586 427.109 187.181 427.453 186.839C427.796 186.497 428.206 186.225 428.657 186.039C429.108 185.853 429.593 185.756 430.082 185.754Z" fill="white"/>
<path d="M438.143 221.662H498.031C499.844 221.662 501.313 220.223 501.313 218.448V189.043C501.313 187.268 499.844 185.829 498.031 185.829H438.143C436.33 185.829 434.861 187.268 434.861 189.043V218.448C434.861 220.223 436.33 221.662 438.143 221.662Z" fill="#FF6565"/>
<path opacity="0.5" d="M438.143 221.662H498.031C499.844 221.662 501.313 220.223 501.313 218.448V189.043C501.313 187.268 499.844 185.829 498.031 185.829H438.143C436.33 185.829 434.861 187.268 434.861 189.043V218.448C434.861 220.223 436.33 221.662 438.143 221.662Z" fill="white"/>
<path d="M460.523 185.754H463.103V180.627C463.103 180.566 463.126 180.507 463.169 180.463C463.211 180.418 463.27 180.391 463.332 180.387H473.484C473.548 180.387 473.611 180.413 473.656 180.458C473.702 180.502 473.728 180.563 473.728 180.627V185.754H476.308V180.627C476.308 180.264 476.235 179.905 476.093 179.571C475.95 179.236 475.742 178.932 475.48 178.676C475.217 178.421 474.906 178.218 474.563 178.081C474.221 177.944 473.854 177.874 473.484 177.876H463.332C462.587 177.876 461.872 178.166 461.345 178.682C460.819 179.198 460.523 179.897 460.523 180.627V185.754Z" fill="#FF6565"/>
<path opacity="0.3" d="M459.622 210.569C460.958 208.531 461.669 206.16 461.669 203.738C461.669 201.316 460.958 198.944 459.622 196.906H476.567C475.242 198.948 474.538 201.318 474.538 203.738C474.538 206.157 475.242 208.527 476.567 210.569H459.622Z" fill="black"/>
<path opacity="0.9" d="M457.378 193.139H479.376C480.051 193.139 480.597 192.603 480.597 191.943V190.807C480.597 190.146 480.051 189.611 479.376 189.611H457.378C456.703 189.611 456.157 190.146 456.157 190.807V191.943C456.157 192.603 456.703 193.139 457.378 193.139Z" fill="white"/>
<path opacity="0.5" d="M460.996 213.081H456.63V215.607H460.996V213.081Z" fill="white"/>
<path opacity="0.3" d="M478.826 213.081H474.628V215.607H478.826V213.081Z" fill="black"/>
<path opacity="0.5" d="M472.919 213.081H468.72V215.607H472.919V213.081Z" fill="white"/>
<path opacity="0.3" d="M467.011 213.081H462.812V215.607H467.011V213.081Z" fill="black"/>
<path d="M461.805 189.626H460.752V193.154H461.805V189.626Z" fill="#FF6565"/>
<path opacity="0.3" d="M501.313 197.325H481.055V210.151H501.313V197.325Z" fill="black"/>
<path opacity="0.3" d="M454.874 197.325H434.876V210.151H454.874V197.325Z" fill="black"/>
<path d="M487.605 214.023C493.405 214.023 498.108 209.418 498.108 203.738C498.108 198.058 493.405 193.453 487.605 193.453C481.804 193.453 477.102 198.058 477.102 203.738C477.102 209.418 481.804 214.023 487.605 214.023Z" fill="#263238"/>
<path d="M448.585 214.023C454.385 214.023 459.088 209.418 459.088 203.738C459.088 198.058 454.385 193.453 448.585 193.453C442.784 193.453 438.082 198.058 438.082 203.738C438.082 209.418 442.784 214.023 448.585 214.023Z" fill="#263238"/>
<path opacity="0.5" d="M487.605 214.023C493.405 214.023 498.108 209.418 498.108 203.738C498.108 198.058 493.405 193.453 487.605 193.453C481.804 193.453 477.102 198.058 477.102 203.738C477.102 209.418 481.804 214.023 487.605 214.023Z" fill="white"/>
<path opacity="0.5" d="M448.585 214.023C454.385 214.023 459.088 209.418 459.088 203.738C459.088 198.058 454.385 193.453 448.585 193.453C442.784 193.453 438.082 198.058 438.082 203.738C438.082 209.418 442.784 214.023 448.585 214.023Z" fill="white"/>
<path opacity="0.5" d="M464.538 206.772H471.667C472.358 206.772 472.919 206.224 472.919 205.547V201.929C472.919 201.252 472.358 200.703 471.667 200.703H464.538C463.846 200.703 463.286 201.252 463.286 201.929V205.547C463.286 206.224 463.846 206.772 464.538 206.772Z" fill="black"/>
<path d="M456.05 464.837C454.813 468.455 453.79 471.743 453.79 471.743L446.478 469.665L447.654 462.191L456.05 464.837Z" fill="#CE7A63"/>
<path d="M441.562 468.843C440.479 468.544 439.425 468.021 439.196 467.453C439.144 467.298 439.142 467.132 439.191 466.976C439.24 466.82 439.338 466.684 439.471 466.586C439.578 466.49 439.703 466.415 439.839 466.366C439.975 466.317 440.12 466.296 440.265 466.302C441.791 466.302 444.387 468.903 444.494 469.008C444.519 469.043 444.532 469.084 444.532 469.127C444.532 469.17 444.519 469.212 444.494 469.247C444.479 469.289 444.45 469.325 444.41 469.347C444.371 469.369 444.324 469.376 444.28 469.366C443.36 469.273 442.45 469.098 441.562 468.843V468.843ZM440.677 466.78C440.54 466.766 440.402 466.766 440.265 466.78C440.176 466.772 440.087 466.782 440.003 466.811C439.918 466.839 439.841 466.885 439.776 466.945C439.547 467.154 439.563 467.288 439.608 467.378C439.837 468.051 442.036 468.694 443.73 468.963C442.858 468.062 441.822 467.327 440.677 466.795V466.78Z" fill="#FF6565"/>
<path d="M444.28 469.351C444.28 469.351 444.28 469.351 444.203 469.351C443.287 468.604 441.746 466.152 442.219 465.241C442.31 465.016 442.57 464.777 443.15 464.882C443.364 464.922 443.567 465.004 443.748 465.122C443.928 465.24 444.083 465.392 444.203 465.569C444.73 466.729 444.858 468.025 444.57 469.262C444.564 469.299 444.548 469.333 444.524 469.362C444.5 469.391 444.468 469.413 444.432 469.426C444.374 469.419 444.321 469.393 444.28 469.351ZM443.181 465.285H443.058C442.692 465.285 442.616 465.285 442.585 465.39C442.356 465.958 443.303 467.797 444.203 468.739C444.395 467.727 444.261 466.683 443.822 465.749C443.67 465.526 443.443 465.362 443.181 465.285V465.285Z" fill="#FF6565"/>
<path d="M445.562 468.425L455.103 471.16C455.275 471.211 455.424 471.316 455.527 471.46C455.629 471.604 455.679 471.777 455.668 471.953L455.134 480.055C455.124 480.225 455.08 480.392 455.004 480.545C454.928 480.699 454.821 480.836 454.691 480.948C454.56 481.061 454.408 481.147 454.243 481.202C454.078 481.256 453.903 481.278 453.729 481.266C453.633 481.281 453.535 481.281 453.439 481.266C450.02 480.234 447.028 479.173 442.753 477.947C437.715 476.452 438.815 477.469 432.846 475.854C429.258 474.868 429.792 470.697 431.319 470.936C438.524 472.072 439.853 470.218 443.257 468.559C443.982 468.238 444.803 468.19 445.562 468.425V468.425Z" fill="#263238"/>
<path d="M446.936 463.222L469.392 306.841L472.445 280.426L507.084 282.145C507.084 282.145 521.052 313.194 498.214 332.06C498.214 332.06 488.353 355.978 484.765 363.752C482.704 368.236 478.17 377.131 477.132 381.93C476.109 386.414 476.72 390.122 475.346 400.003C474.641 405.467 473.622 410.887 472.293 416.238C469.24 427.763 460.324 454.417 456.294 466.257L446.936 463.222Z" fill="#FF6565"/>
<path opacity="0.4" d="M446.936 463.222L469.392 306.841L472.445 280.426L507.084 282.145C507.084 282.145 521.052 313.194 498.214 332.06C498.214 332.06 488.353 355.978 484.765 363.752C482.704 368.236 478.17 377.131 477.132 381.93C476.109 386.414 476.72 390.122 475.346 400.003C474.641 405.467 473.622 410.887 472.293 416.238C469.24 427.763 460.324 454.417 456.294 466.257L446.936 463.222Z" fill="white"/>
<path opacity="0.2" d="M491.65 306.632L496.123 314.854L501.787 328.726C500.662 329.923 499.464 331.051 498.199 332.105C498.199 332.105 493.619 343.212 489.559 352.764C494.596 331.836 486.612 308.515 486.612 308.515L491.65 306.632Z" fill="black"/>
<path d="M581.353 379.224C583.139 378.641 586.971 377.849 588.833 377.176L587.047 369.163C587.047 369.163 582.467 369.492 578.284 369.388L581.353 379.224Z" fill="#CE7A63"/>
<path d="M590.069 381.123C590.38 382.005 590.347 382.968 589.978 383.828C589.866 383.952 589.717 384.037 589.552 384.072C589.388 384.107 589.216 384.09 589.062 384.023C588.785 383.931 588.555 383.738 588.421 383.484C587.673 382.124 588.741 378.701 588.787 378.551C588.8 378.509 588.826 378.472 588.862 378.445C588.897 378.418 588.941 378.403 588.986 378.402C589.027 378.401 589.068 378.412 589.103 378.433C589.138 378.454 589.166 378.485 589.184 378.522C589.554 379.362 589.85 380.232 590.069 381.123ZM588.665 382.902C588.69 383.032 588.737 383.159 588.802 383.275C588.839 383.355 588.891 383.426 588.957 383.486C589.023 383.545 589.1 383.59 589.184 383.619C589.489 383.709 589.596 383.619 589.657 383.619C590.146 383.081 589.657 380.883 589.062 379.314C588.701 380.475 588.567 381.692 588.665 382.902V382.902Z" fill="#FF6565"/>
<path d="M589.184 378.596C589.191 378.626 589.191 378.656 589.184 378.686C588.955 379.837 587.505 382.348 586.467 382.393C586.223 382.393 585.887 382.318 585.704 381.75C585.631 381.553 585.602 381.344 585.618 381.135C585.634 380.927 585.694 380.724 585.795 380.539C586.561 379.536 587.629 378.794 588.848 378.417C588.881 378.398 588.918 378.389 588.955 378.389C588.993 378.389 589.03 378.398 589.062 378.417C589.095 378.435 589.124 378.461 589.145 378.492C589.166 378.523 589.18 378.559 589.184 378.596ZM586.131 381.586C586.253 381.96 586.406 381.945 586.467 381.945C587.078 381.87 588.268 380.166 588.665 378.955C587.681 379.283 586.823 379.899 586.207 380.719C586.086 380.955 586.054 381.225 586.116 381.481L586.131 381.586Z" fill="#FF6565"/>
<path d="M587.734 377.923L585.536 368.431C585.493 368.258 585.513 368.076 585.59 367.916C585.668 367.756 585.8 367.626 585.963 367.549L593.443 364.081C593.759 363.931 594.123 363.91 594.455 364.022C594.787 364.134 595.06 364.37 595.214 364.679C595.256 364.761 595.292 364.846 595.321 364.933C596.054 368.371 596.573 371.451 597.565 375.711C598.741 380.734 599.092 379.314 600.527 385.204C601.397 388.747 597.474 390.331 596.863 388.866C594.375 382.154 592.07 381.915 588.925 379.822C588.312 379.346 587.891 378.674 587.734 377.923V377.923Z" fill="#263238"/>
<path d="M580.223 368.969C567.796 368.67 542.272 368.491 536.929 371.66L522.823 318.576C522.823 318.576 522.441 290.502 508.091 280.471L481.88 280.934C481.88 280.934 477.651 308.186 520.045 381.317C520.999 382.988 522.343 384.415 523.966 385.483C525.589 386.55 527.447 387.228 529.387 387.461C537.753 388.403 555.904 388.194 583.383 379.06L580.223 368.969Z" fill="#FF6565"/>
<path opacity="0.4" d="M580.223 368.969C567.796 368.67 542.272 368.491 536.929 371.66L522.823 318.576C522.823 318.576 522.441 290.502 508.091 280.471L481.88 280.934C481.88 280.934 477.651 308.186 520.045 381.317C520.999 382.988 522.343 384.415 523.966 385.483C525.589 386.55 527.447 387.228 529.387 387.461C537.753 388.403 555.904 388.194 583.383 379.06L580.223 368.969Z" fill="white"/>
<path opacity="0.2" d="M541.249 374.59C538.394 375.278 536.929 371.6 536.929 371.6C539.295 370.195 545.661 369.447 553.08 369.074C543.921 370.838 544.455 373.827 541.249 374.59Z" fill="black"/>
<path d="M490.826 191.898C490.826 191.898 493.39 187.907 492.169 185.35C489.757 180.283 488.734 174.632 494.963 177.472C494.963 177.472 497.649 164.123 502.779 173.466C502.779 173.466 510.076 165.095 511.938 175.066C511.938 175.066 519.22 171.089 518.045 181.12C518.045 181.12 525.769 180.372 520.732 188.041C520.732 188.041 526.594 191.181 520.732 196.368C520.732 196.368 525.311 200.703 518.197 201.944C518.197 201.944 520.732 207.012 514.381 206.772C514.381 206.772 515.022 209.493 508.488 210.001C503.038 210.45 490.826 191.898 490.826 191.898Z" fill="#263238"/>
<path d="M504.015 225.787H508.717C507.191 228.538 500.138 237.896 491.925 237.268C484.292 236.685 484.689 228.732 487.086 225.952L491.665 225.787C494.963 224.128 494.993 220.72 494.459 217.416L504.993 209.852C503.786 214.157 502.351 221.422 504.015 225.787Z" fill="#CE7A63"/>
<path opacity="0.2" d="M500.642 212.976L494.367 217.461C494.548 218.398 494.645 219.348 494.657 220.301C496.886 220.152 500.397 218.463 500.764 216.205C500.923 215.131 500.882 214.037 500.642 212.976V212.976Z" fill="black"/>
<path d="M510.916 202.631C507.374 210.45 506.046 213.828 500.352 216.429C491.787 220.346 482.765 214.366 483.849 205.666C484.841 197.833 490.475 186.367 499.68 186.113C501.7 186.05 503.703 186.491 505.501 187.396C507.299 188.3 508.832 189.638 509.956 191.283C511.08 192.928 511.757 194.826 511.925 196.798C512.093 198.771 511.746 200.752 510.916 202.557V202.631Z" fill="#CE7A63"/>
<path d="M491.742 199.447C490.584 200.716 489.254 201.823 487.788 202.736C488.034 203.099 488.358 203.405 488.738 203.632C489.118 203.859 489.544 204.002 489.986 204.052L491.742 199.447Z" fill="#BA4D3C"/>
<path d="M501.954 198.222C502.015 198.236 502.077 198.236 502.138 198.222C502.222 198.185 502.289 198.118 502.323 198.034C502.357 197.95 502.357 197.857 502.321 197.773V197.773C502.096 197.177 501.727 196.642 501.246 196.216C500.765 195.789 500.186 195.482 499.558 195.322C499.514 195.311 499.469 195.309 499.425 195.316C499.381 195.323 499.339 195.339 499.302 195.363C499.265 195.387 499.233 195.418 499.208 195.455C499.184 195.491 499.168 195.533 499.161 195.576C499.15 195.619 499.147 195.664 499.154 195.708C499.162 195.752 499.178 195.794 499.202 195.832C499.226 195.87 499.258 195.902 499.296 195.928C499.333 195.953 499.376 195.971 499.42 195.979C499.937 196.117 500.413 196.376 500.806 196.732C501.2 197.089 501.499 197.533 501.68 198.027C501.704 198.081 501.742 198.127 501.79 198.161C501.838 198.195 501.895 198.216 501.954 198.222Z" fill="#2E353A"/>
<path d="M487.818 193.229C487.873 193.242 487.931 193.242 487.986 193.229C488.484 193.046 489.019 192.977 489.548 193.029C490.078 193.081 490.588 193.252 491.039 193.528C491.069 193.56 491.106 193.585 491.147 193.603C491.187 193.621 491.231 193.63 491.276 193.63C491.32 193.63 491.365 193.621 491.405 193.603C491.446 193.585 491.483 193.56 491.513 193.528V193.528C491.567 193.454 491.589 193.363 491.575 193.273C491.561 193.183 491.511 193.103 491.436 193.049C490.892 192.699 490.27 192.481 489.622 192.413C488.974 192.345 488.319 192.43 487.711 192.661C487.641 192.689 487.581 192.739 487.542 192.804C487.503 192.868 487.487 192.943 487.495 193.018C487.504 193.092 487.537 193.162 487.59 193.216C487.643 193.27 487.712 193.306 487.788 193.318L487.818 193.229Z" fill="#2E353A"/>
<path d="M496.84 200.09C496.596 200.733 496.047 201.121 495.604 200.972C495.161 200.823 495.024 200.165 495.283 199.477C495.543 198.789 496.077 198.431 496.505 198.58C496.932 198.73 497.1 199.432 496.84 200.09Z" fill="#2E353A"/>
<path d="M489.33 197.34C489.085 197.982 488.52 198.386 488.093 198.222C487.666 198.057 487.513 197.414 487.757 196.727C488.001 196.039 488.551 195.68 488.994 195.845C489.436 196.009 489.589 196.682 489.33 197.34Z" fill="#2E353A"/>
<path d="M489.162 195.979L487.742 194.948C487.742 194.948 488.093 196.458 489.162 195.979Z" fill="#2E353A"/>
<path d="M496.688 198.715L495.253 197.683C495.253 197.683 495.619 199.208 496.688 198.715Z" fill="#2E353A"/>
<path d="M487.589 207.385C490.831 207.614 494.042 208.155 497.176 209C496.492 210.092 495.446 210.922 494.212 211.349C492.978 211.776 491.632 211.776 490.398 211.347C489.523 211.228 488.731 210.774 488.196 210.085C487.661 209.396 487.426 208.527 487.544 207.669L487.589 207.385Z" fill="#2E353A"/>
<path d="M492.428 210.076C491.076 209.689 489.633 209.731 488.307 210.196C488.863 210.772 489.589 211.164 490.383 211.317C491.748 211.701 493.203 211.649 494.535 211.167C493.965 210.599 493.229 210.217 492.428 210.076V210.076Z" fill="#892B29"/>
<path d="M487.925 207.4C487.941 207.665 488.029 207.921 488.179 208.142C488.329 208.362 488.537 208.54 488.78 208.656C490.846 209.134 492.95 209.435 495.07 209.553C495.401 209.598 495.738 209.563 496.052 209.451C496.366 209.339 496.647 209.153 496.871 208.91C493.935 208.175 490.943 207.67 487.925 207.4V207.4Z" fill="white"/>
<path d="M488.551 226.505C488.551 226.505 482.353 235.743 492.642 235.758C502.931 235.773 507.16 226.505 507.16 226.505C507.16 226.505 520.35 224.532 520.808 233.247C521.266 241.962 511.969 254.579 510.259 282.19C503.724 285.662 496.296 287.19 488.887 286.585C476.796 285.449 471.835 281.592 471.835 281.592C471.938 275.341 471.484 269.094 470.476 262.921C468.781 252.456 465.896 239.824 482.124 227.267L488.551 226.505Z" fill="#263238"/>
<path d="M508.58 207.012C508.58 207.012 505.527 205.517 506.595 196.069C507.664 186.621 494.764 187.653 494.505 186.098C494.245 184.543 506.947 181.479 511.297 190.583C512.771 193.228 513.304 196.278 512.812 199.253C512.32 202.227 510.831 204.957 508.58 207.012V207.012Z" fill="#263238"/>
<path d="M493.009 198.775C492.547 199.893 492.558 201.144 493.039 202.255C493.52 203.365 494.432 204.242 495.573 204.694C496.715 205.146 497.993 205.136 499.127 204.665C500.261 204.194 501.157 203.301 501.619 202.183C502.58 199.866 500.871 198.595 498.489 197.698C496.108 196.801 494.016 196.443 493.009 198.775Z" fill="#FF6565"/>
<path d="M493.802 199.208C493.488 200.105 493.537 201.085 493.939 201.948C494.341 202.811 495.065 203.49 495.962 203.846C496.859 204.202 497.862 204.208 498.763 203.863C499.665 203.517 500.397 202.846 500.809 201.989C501.588 200.09 500.184 198.999 498.26 198.296C496.337 197.594 494.535 197.324 493.802 199.208Z" fill="#263238"/>
<path d="M482.796 194.723C482.33 195.842 482.337 197.095 482.815 198.208C483.293 199.321 484.204 200.202 485.345 200.658C486.487 201.114 487.767 201.107 488.904 200.639C490.04 200.171 490.94 199.28 491.406 198.162C492.383 195.83 490.658 194.559 488.353 193.677C486.048 192.795 483.849 192.362 482.796 194.723Z" fill="#FF6565"/>
<path d="M483.559 195.142C483.372 195.592 483.276 196.073 483.279 196.558C483.281 197.044 483.382 197.524 483.574 197.972C483.766 198.42 484.046 198.826 484.398 199.167C484.751 199.509 485.168 199.779 485.628 199.963C486.087 200.147 486.578 200.24 487.074 200.237C487.57 200.235 488.06 200.137 488.518 199.949C488.975 199.761 489.39 199.486 489.738 199.141C490.087 198.796 490.363 198.387 490.551 197.937C491.329 196.054 489.94 194.948 488.017 194.245C486.093 193.542 484.338 193.229 483.559 195.142Z" fill="#263238"/>
<path d="M490.734 197.878C491.008 197.762 491.303 197.701 491.602 197.698C491.901 197.695 492.197 197.75 492.474 197.86C492.751 197.97 493.003 198.132 493.215 198.338C493.427 198.544 493.596 198.789 493.711 199.059L494.443 197.265L491.482 196.084L490.734 197.878Z" fill="#FF6565"/>
<path d="M501.832 200.24L509.099 206.175L508.58 207.012L501.252 201.436L501.832 200.24Z" fill="#FF6565"/>
<path d="M510.442 209.673C509.422 210.986 507.913 211.851 506.244 212.079C504.015 212.363 503.191 210.345 504.107 208.462C505.023 206.578 507.007 204.56 509.114 205.143C509.477 205.255 509.813 205.436 510.103 205.676C510.394 205.916 510.634 206.209 510.808 206.54C510.982 206.87 511.089 207.232 511.12 207.602C511.152 207.973 511.108 208.347 510.992 208.701C510.872 209.056 510.686 209.385 510.442 209.673Z" fill="#CE7A63"/>
<path d="M504 225.713C504 225.713 506.962 226.654 506.26 233.935C505.557 241.215 500.688 283.715 512.702 328.801L530.548 323.031C530.548 323.031 526.319 308.381 522.915 297.408C519.51 286.436 510.702 277.81 515.526 259.288C520.35 240.766 530.12 221.019 504 225.713Z" fill="#FF6565"/>
<path d="M491.65 225.683C491.65 225.683 476.628 232.858 473.239 242.784C469.514 253.682 477.209 298.096 469.392 325.811L460.508 323.031C460.508 323.031 472.186 292.684 470.522 278.184C468.995 264.296 461.149 240.408 477.911 227.791C479.213 226.822 480.782 226.26 482.414 226.176L491.65 225.683Z" fill="#FF6565"/>
<path d="M522.854 295.046L513.771 297.543C513.771 297.543 514.793 303.268 525.724 299.157L522.854 295.046Z" fill="#FF6565"/>
<path opacity="0.4" d="M522.854 295.046L513.771 297.543C513.771 297.543 514.793 303.268 525.724 299.157L522.854 295.046Z" fill="black"/>
<path d="M469.652 298.903L467.056 297.872L465.148 301.788C465.148 301.788 467.896 303.851 469.652 298.903Z" fill="#FF6565"/>
<path opacity="0.4" d="M469.652 298.903L467.056 297.872L465.148 301.788C465.148 301.788 467.896 303.851 469.652 298.903Z" fill="black"/>
<path d="M480.124 226.669C480.862 226.416 481.633 226.265 482.414 226.221L491.65 225.683C491.65 225.683 476.628 232.858 473.239 242.785C472.959 243.647 472.76 244.533 472.644 245.43V245.43C471.636 234.563 476.399 229.196 480.124 226.669Z" fill="#FF6565"/>
<path opacity="0.3" d="M480.124 226.669C480.862 226.416 481.633 226.265 482.414 226.221L491.65 225.683C491.65 225.683 476.628 232.858 473.239 242.785C472.959 243.647 472.76 244.533 472.644 245.43V245.43C471.636 234.563 476.399 229.196 480.124 226.669Z" fill="black"/>
<path opacity="0.1" d="M521.251 236.117C520.793 241.768 518.35 248.943 516.32 256.149C517.644 250.209 517.644 244.06 516.32 238.12L521.251 236.117Z" fill="black"/>
<path d="M557.446 187.847V179.879C557.443 179.564 557.503 179.251 557.624 178.958C557.744 178.666 557.923 178.4 558.149 178.175L560.515 175.798C560.755 175.556 561.044 175.366 561.364 175.239C561.683 175.113 562.026 175.052 562.37 175.062C562.715 175.072 563.053 175.152 563.364 175.297C563.676 175.441 563.953 175.648 564.179 175.903L568.407 180.701C568.785 181.141 568.992 181.697 568.992 182.271C568.992 182.845 568.785 183.401 568.407 183.841L562.988 190.343C562.988 190.343 559.935 199.971 556.424 209.628L547.172 206.533L557.446 187.847Z" fill="#CE7A63"/>
<path d="M513.389 225.025C520.441 224.741 537.432 223.246 540.486 217.356C543.539 211.466 552.454 196.428 552.454 196.428L560.484 199.208C560.484 199.208 553.965 224.98 547.859 229.6C541.753 234.219 512.747 247.404 511.373 236.087C510.778 231.005 510.534 225.13 513.389 225.025Z" fill="#FF6565"/>
<path d="M560.958 198.192L552.607 195.247L551.233 197.28L560.606 200.703L560.958 198.192Z" fill="#FF6565"/>
<path opacity="0.4" d="M560.958 198.192L552.607 195.247L551.233 197.28L560.606 200.703L560.958 198.192Z" fill="black"/>
<path d="M511.618 225.04C512.87 225.19 518.869 226.251 517.266 232.515C515.496 239.511 505.466 240.602 505.145 247.942C505.527 240.931 506.061 235.983 506.26 233.935C506.962 226.655 504 225.713 504 225.713C506.508 225.222 509.061 224.996 511.618 225.04V225.04Z" fill="#FF6565"/>
<path opacity="0.3" d="M511.618 225.04C512.87 225.19 518.869 226.251 517.266 232.515C515.496 239.511 505.466 240.602 505.145 247.942C505.527 240.931 506.061 235.983 506.26 233.935C506.962 226.655 504 225.713 504 225.713C506.508 225.222 509.061 224.996 511.618 225.04V225.04Z" fill="black"/>
<path d="M332.716 93.9674C333.251 92.5472 333.052 91.1869 332.289 90.9776C331.525 90.7683 330.487 91.6353 329.953 93.0405C329.763 93.5275 329.665 94.0441 329.663 94.5653L311.1 143.314L313.863 144.301L331.892 95.3726C332.245 94.9523 332.523 94.4774 332.716 93.9674V93.9674Z" fill="#263238"/>
<path opacity="0.6" d="M332.716 93.9674C333.251 92.5472 333.052 91.1869 332.289 90.9776C331.525 90.7683 330.487 91.6353 329.953 93.0405C329.763 93.5275 329.665 94.0441 329.663 94.5653L311.1 143.314L313.863 144.301L331.892 95.3726C332.245 94.9523 332.523 94.4774 332.716 93.9674V93.9674Z" fill="white"/>
<path d="M412.343 90.2898C411.824 88.8697 412.007 87.5093 412.771 87.3C413.534 87.0907 414.587 87.9428 415.106 89.348C415.303 89.8596 415.406 90.401 415.412 90.9476L433.975 139.696L431.197 140.698L413.183 91.7548C412.807 91.3259 412.521 90.8279 412.343 90.2898V90.2898Z" fill="#263238"/>
<path opacity="0.6" d="M412.343 90.2898C411.824 88.8697 412.007 87.5093 412.771 87.3C413.534 87.0907 414.587 87.9428 415.106 89.348C415.303 89.8596 415.406 90.401 415.412 90.9476L433.975 139.696L431.197 140.698L413.183 91.7548C412.807 91.3259 412.521 90.8279 412.343 90.2898V90.2898Z" fill="white"/>
<path d="M312.641 447.048L308.886 468.26L317.389 471.086L323.328 450.082L312.641 447.048Z" fill="#EEC1BB"/>
<path d="M304.062 464.239C302.963 463.91 301.879 463.372 301.65 462.744C301.599 462.583 301.599 462.411 301.651 462.251C301.703 462.091 301.804 461.95 301.94 461.847C302.166 461.651 302.462 461.549 302.764 461.563C304.367 461.563 306.947 464.269 307.054 464.388C307.076 464.425 307.087 464.466 307.087 464.508C307.087 464.55 307.076 464.591 307.054 464.628C307.035 464.669 307.002 464.704 306.96 464.725C306.919 464.747 306.871 464.755 306.825 464.747C305.891 464.657 304.966 464.487 304.062 464.239V464.239ZM303.177 462.116C303.037 462.076 302.894 462.05 302.749 462.041C302.658 462.034 302.567 462.045 302.48 462.073C302.393 462.101 302.313 462.146 302.245 462.206C302.016 462.43 302.032 462.565 302.062 462.654C302.306 463.342 304.55 464.03 306.275 464.314C305.389 463.401 304.339 462.656 303.177 462.116V462.116Z" fill="#B265FF"/>
<path d="M306.84 464.777H306.749C305.833 464 304.276 461.473 304.764 460.547C304.856 460.307 305.13 460.083 305.726 460.188C306.163 460.275 306.546 460.528 306.794 460.89C307.311 462.09 307.433 463.417 307.146 464.687C307.134 464.724 307.114 464.757 307.087 464.786C307.061 464.814 307.029 464.837 306.993 464.852C306.935 464.845 306.881 464.818 306.84 464.777ZM305.756 460.606H305.634C305.237 460.532 305.176 460.681 305.146 460.726C304.901 461.294 305.848 463.193 306.764 464.164C306.947 463.154 306.82 462.113 306.398 461.174C306.245 460.952 306.019 460.788 305.756 460.711V460.606Z" fill="#B265FF"/>
<path d="M309.71 464.374L318.778 467.618C318.955 467.671 319.109 467.781 319.214 467.93C319.319 468.079 319.37 468.259 319.358 468.44L318.717 476.721C318.69 477.073 318.522 477.4 318.251 477.632C317.98 477.864 317.627 477.983 317.267 477.962H316.977C313.496 476.871 310.428 475.75 306.062 474.464C300.902 472.969 301.146 473.044 295.055 471.34C291.391 470.293 292.002 466.033 293.528 466.287C300.887 467.513 303.818 466.167 307.268 464.493C308.037 464.151 308.91 464.108 309.71 464.374V464.374Z" fill="#263238"/>
<path d="M343.036 263.489C319.999 371.391 320.564 371.555 308.993 457.975L321.801 461.115C321.801 461.115 347.203 396.131 344.41 377.595C344.41 377.595 357.89 331.163 366.881 322.074C374.285 314.6 381.231 297.797 383.567 267.137L343.036 263.489Z" fill="#B265FF"/>
<path opacity="0.4" d="M343.036 263.489C319.999 371.391 320.564 371.555 308.993 457.975L321.801 461.115C321.801 461.115 347.203 396.131 344.41 377.595C344.41 377.595 357.89 331.163 366.881 322.074C374.285 314.6 381.231 297.797 383.567 267.137L343.036 263.489Z" fill="white"/>
<path opacity="0.2" d="M367.477 305.735L363.248 304.135C363.248 304.135 360.195 318.053 356.027 340.76C359.66 332.792 363.66 325.408 366.912 322.059C367.339 321.611 367.782 321.192 368.194 320.788L367.477 305.735Z" fill="black"/>
<path d="M369.446 450.561L371.232 473.493L379.583 473.059L381.567 451.114L369.446 450.561Z" fill="#EEC1BB"/>
<path d="M366.301 471.639C365.329 471.731 364.357 471.47 363.569 470.906C363.468 470.769 363.414 470.604 363.414 470.435C363.414 470.267 363.468 470.102 363.569 469.965C363.73 469.719 363.981 469.542 364.271 469.471C365.797 469.083 369.049 470.966 369.202 470.966C369.241 470.988 369.271 471.022 369.287 471.063C369.304 471.103 369.306 471.148 369.293 471.19C369.288 471.234 369.269 471.274 369.239 471.306C369.209 471.339 369.169 471.361 369.125 471.37C368.194 471.539 367.249 471.629 366.301 471.639V471.639ZM364.775 469.845C364.633 469.83 364.489 469.83 364.347 469.845C364.255 469.858 364.167 469.892 364.09 469.944C364.014 469.996 363.95 470.064 363.904 470.144C363.737 470.413 363.798 470.548 363.904 470.607C364.317 471.22 366.668 471.265 368.408 471.086C367.333 470.448 366.148 470.008 364.912 469.785L364.775 469.845Z" fill="#B265FF"/>
<path d="M369.171 471.43H369.079C367.98 470.936 365.767 468.918 366.026 467.887C366.026 467.648 366.255 467.349 366.866 467.304C367.086 467.278 367.309 467.299 367.52 467.366C367.731 467.433 367.925 467.545 368.087 467.692C368.918 468.702 369.404 469.941 369.476 471.235C369.479 471.274 369.47 471.313 369.451 471.347C369.432 471.382 369.404 471.41 369.37 471.43C369.341 471.45 369.306 471.461 369.27 471.461C369.235 471.461 369.2 471.45 369.171 471.43ZM366.958 467.692H366.835C366.439 467.692 366.408 467.887 366.393 467.932C366.316 468.559 367.767 470.129 368.912 470.817C368.814 469.779 368.399 468.794 367.721 467.991C367.509 467.812 367.238 467.711 366.958 467.707V467.692Z" fill="#B265FF"/>
<path d="M370.179 470.174L380.346 470.323C380.533 470.326 380.714 470.392 380.858 470.508C381.002 470.625 381.102 470.787 381.14 470.966L382.85 479.098C382.922 479.445 382.852 479.806 382.655 480.102C382.458 480.399 382.149 480.608 381.796 480.683C381.7 480.698 381.602 480.698 381.506 480.683C377.842 480.563 374.591 480.324 370.026 480.264C364.637 480.175 365.996 480.832 359.661 480.817C355.844 480.817 355.218 476.557 356.836 476.333C364.256 475.54 365.065 473.343 367.965 470.817C368.597 470.343 369.385 470.114 370.179 470.174V470.174Z" fill="#263238"/>
<path d="M363.324 265.298C363.324 265.298 360.775 325.363 363.706 382.005C366.637 438.646 368.393 461.758 368.393 461.758L382.269 462.968C382.269 462.968 390.269 395.773 385.933 379.448C385.933 379.448 390.986 335.02 394.009 322.313C397.337 308.396 396.421 269.424 396.421 269.424L363.324 265.298Z" fill="#B265FF"/>
<path opacity="0.4" d="M363.324 265.298C363.324 265.298 360.775 325.363 363.706 382.005C366.637 438.646 368.393 461.758 368.393 461.758L382.269 462.968C382.269 462.968 390.269 395.773 385.933 379.448C385.933 379.448 390.986 335.02 394.009 322.313C397.337 308.396 396.421 269.424 396.421 269.424L363.324 265.298Z" fill="white"/>
<path d="M313.374 144.405L312.092 132.446L311.145 124.972C311.026 124.017 311.288 123.055 311.877 122.286C312.466 121.517 313.337 121.001 314.305 120.846L316.061 120.562C316.97 120.418 317.902 120.598 318.687 121.07L319.862 121.787C320.475 122.161 320.966 122.699 321.278 123.338C321.589 123.976 321.707 124.688 321.618 125.39L321.145 129.217C321.1 129.644 320.976 130.06 320.778 130.443L318.687 134.539L320.534 143.045L313.374 144.405Z" fill="#EEC1BB"/>
<path d="M431.945 137.798L431.716 125.839V118.364C431.716 117.404 431.337 116.48 430.656 115.789C429.975 115.097 429.047 114.692 428.067 114.657H426.296C425.378 114.623 424.478 114.915 423.762 115.479L422.678 116.331C422.118 116.776 421.698 117.368 421.468 118.037C421.239 118.707 421.208 119.427 421.381 120.113L422.327 123.865C422.435 124.281 422.616 124.676 422.862 125.031L425.442 128.843L424.678 137.499L431.945 137.798Z" fill="#EEC1BB"/>
<path d="M405.871 186.681C410.038 182.107 417.747 176.516 419.274 170.237C420.801 163.959 423.411 134.24 423.411 134.24L433.7 135.002C433.7 135.002 434.067 172.061 431.349 180.417C428.632 188.774 409.458 209.359 400.039 206.04C390.62 202.721 402.436 190.463 405.871 186.681Z" fill="#263238"/>
<path opacity="0.3" d="M429.731 149.249L431.502 149.488L431.456 134.883L429.289 134.733L429.731 149.249Z" fill="white"/>
<path opacity="0.4" d="M420.144 195.815C409.29 205.666 402.634 198.506 402.634 198.506L400.039 199.522L398.436 205.322C398.938 205.64 399.476 205.901 400.039 206.1C404.817 207.789 413.626 202.736 420.144 195.815Z" fill="black"/>
<path d="M345.738 184.484C345.738 184.484 330.961 178.893 326.167 165.693C323.18 157.007 321.488 147.944 321.145 138.784L311.13 140.743C311.13 140.743 310.107 165.588 316.244 176.62C322.381 187.653 335.037 197.908 344.196 204.037C348.333 206.772 355.111 209.673 345.738 184.484Z" fill="#263238"/>
<path opacity="0.3" d="M314.672 155.004L316.382 154.585L314.443 140.04L312.321 140.459L314.672 155.004Z" fill="white"/>
<path opacity="0.4" d="M346.455 196.592C343.921 202.572 332.136 194.081 331.357 193.513C335.368 197.317 339.671 200.815 344.227 203.977C345.119 204.586 346.082 205.088 347.097 205.472C347.631 199.836 348.089 192.631 346.455 196.592Z" fill="black"/>
<path d="M363.248 189.447L362.149 206.115L367.187 207.804L373.934 206.758C373.934 206.758 385.353 190.598 384.987 190.568C379.827 190.149 382.972 177.682 384.987 172.091L370.698 180.911C371.232 185.754 367.309 189.85 363.248 189.447Z" fill="#EEC1BB"/>
<path opacity="0.1" d="M382.361 177.607H378.957L375.217 178.145L373.339 179.311L370.728 180.911C370.899 182.489 370.586 184.082 369.828 185.485C378.606 186.083 382.361 177.607 382.361 177.607Z" fill="black"/>
<path d="M388.91 163.017C386.452 171.642 385.445 176.8 379.949 180.328C371.705 185.635 361.63 179.281 361.37 170.147C361.187 161.851 365.263 149.219 374.758 147.559C376.85 147.187 379.005 147.346 381.016 148.021C383.027 148.695 384.828 149.863 386.248 151.414C387.667 152.964 388.657 154.844 389.123 156.875C389.589 158.907 389.516 161.021 388.91 163.017V163.017Z" fill="#EEC1BB"/>
<path d="M374.407 162.598C374.255 163.301 373.736 163.809 373.263 163.704C372.789 163.6 372.53 162.942 372.698 162.209C372.866 161.477 373.354 161.014 373.843 161.118C374.331 161.223 374.56 161.836 374.407 162.598Z" fill="#263238"/>
<path d="M366.209 160.864C366.041 161.567 365.538 162.06 365.065 161.955C364.591 161.851 364.332 161.208 364.484 160.46C364.637 159.713 365.156 159.235 365.629 159.339C366.103 159.444 366.301 160.147 366.209 160.864Z" fill="#263238"/>
<path d="M369.187 161.836C367.843 163.823 366.224 165.619 364.378 167.173C364.798 167.624 365.313 167.981 365.887 168.219C366.462 168.456 367.082 168.568 367.706 168.548L369.187 161.836Z" fill="#D4827D"/>
<path d="M377.964 159.863H378.178C378.281 159.808 378.36 159.719 378.399 159.611C378.438 159.504 378.436 159.385 378.392 159.28C378.116 158.664 377.696 158.121 377.166 157.695C376.635 157.269 376.009 156.972 375.339 156.828C375.224 156.814 375.108 156.844 375.015 156.911C374.921 156.977 374.857 157.076 374.835 157.187C374.826 157.244 374.829 157.302 374.844 157.358C374.859 157.413 374.884 157.466 374.92 157.512C374.955 157.558 375 157.596 375.051 157.625C375.102 157.654 375.158 157.673 375.216 157.68C375.75 157.796 376.248 158.036 376.668 158.379C377.087 158.723 377.417 159.159 377.628 159.653C377.666 159.709 377.716 159.757 377.774 159.793C377.832 159.829 377.896 159.853 377.964 159.863V159.863Z" fill="#263238"/>
<path d="M363.736 156.947C363.809 156.954 363.882 156.943 363.949 156.914C364.016 156.885 364.074 156.84 364.118 156.783C364.439 156.352 364.859 156.001 365.344 155.759C365.83 155.518 366.367 155.392 366.912 155.393C366.967 155.399 367.023 155.394 367.077 155.378C367.13 155.363 367.179 155.337 367.222 155.302C367.265 155.267 367.3 155.224 367.326 155.175C367.351 155.127 367.366 155.073 367.37 155.019C367.376 154.963 367.371 154.906 367.354 154.852C367.337 154.798 367.309 154.748 367.272 154.704C367.235 154.661 367.19 154.625 367.138 154.6C367.087 154.574 367.03 154.559 366.973 154.556C366.279 154.537 365.591 154.682 364.966 154.978C364.342 155.275 363.799 155.714 363.385 156.26C363.317 156.347 363.287 156.458 363.301 156.567C363.316 156.676 363.373 156.775 363.462 156.843V156.843C363.538 156.909 363.635 156.946 363.736 156.947V156.947Z" fill="#263238"/>
<path d="M365.431 171.926C369.04 171.356 372.691 171.086 376.346 171.119C375.537 173.137 373.873 174.812 369.766 174.886C365.66 174.961 365.431 171.926 365.431 171.926Z" fill="#263238"/>
<path d="M365.797 171.851C366.042 172.27 366.393 173.481 367.324 173.615C369.703 173.556 372.076 173.331 374.423 172.943C375.155 172.823 375.674 171.807 376.056 171.119C372.624 171.144 369.197 171.388 365.797 171.851V171.851Z" fill="white"/>
<path d="M389.2 157.351C388.609 154.169 386.754 151.347 384.041 149.503C381.328 147.659 377.979 146.944 374.728 147.514C373.136 147.796 371.623 148.402 370.286 149.293L373.934 151.371C373.934 151.371 385.063 148.531 385.414 156.334C385.562 161.16 384.285 165.925 381.735 170.058H386.956C387.612 167.995 388.238 165.678 388.986 163.017C389.507 161.17 389.58 159.23 389.2 157.351V157.351Z" fill="#263238"/>
<path opacity="0.5" d="M389.2 157.351C388.609 154.169 386.754 151.347 384.041 149.503C381.328 147.659 377.979 146.944 374.728 147.514C373.136 147.796 371.623 148.402 370.286 149.293L373.934 151.371C373.934 151.371 385.063 148.531 385.414 156.334C385.562 161.16 384.285 165.925 381.735 170.058H386.956C387.612 167.995 388.238 165.678 388.986 163.017C389.507 161.17 389.58 159.23 389.2 157.351V157.351Z" fill="white"/>
<path d="M381.033 160.131L362.713 156.334L361.431 163.36L366.118 164.855L369.247 161.163V165.513L376.682 166.888L380.453 162.404L389.063 167.143L389.75 165.842L381.033 160.131ZM379.353 161.97L375.842 165.693L370.285 164.811L370.041 160.326L368.942 160.117L365.675 163.689L362.24 162.688L363.248 157.351L379.491 160.64L379.353 161.97Z" fill="#B265FF"/>
<path opacity="0.5" d="M381.033 160.131L362.713 156.334L361.431 163.36L366.118 164.855L369.247 161.163V165.513L376.682 166.888L380.453 162.404L389.063 167.143L389.75 165.842L381.033 160.131ZM379.353 161.97L375.842 165.693L370.285 164.811L370.041 160.326L368.942 160.117L365.675 163.689L362.24 162.688L363.248 157.351L379.491 160.64L379.353 161.97Z" fill="black"/>
<path d="M373.553 150.086C373.553 150.086 364.622 148.95 367.904 140.623C368.027 141.907 368.547 143.123 369.396 144.109C370.244 145.095 371.381 145.804 372.652 146.139C372.652 146.139 371.522 140.16 376.194 140.623C376.194 140.623 374.285 144.764 377.903 145.347C377.903 145.347 380.025 140.309 385.017 144.062C390.009 147.814 394.696 159.369 394.696 159.369L391.643 158.353C391.643 158.353 392.269 163.944 394.696 165.125C397.123 166.306 386.926 166.919 386.88 170.058C386.88 170.058 389.75 160.999 388.101 156.335C388.101 156.335 387.246 157.486 384.162 150.505C383.047 149.584 381.706 148.963 380.272 148.701C378.838 148.439 377.359 148.545 375.98 149.01C375.98 149.01 380.239 151.82 377.797 153.689C377.797 153.734 378.514 151.446 373.553 150.086Z" fill="#263238"/>
<path d="M391.475 172.091C389.862 173.694 387.667 174.608 385.368 174.632C382.315 174.632 382.132 171.388 383.124 169.385C384.254 167.098 387.704 164.616 390.452 165.752C391.049 166.009 391.571 166.409 391.97 166.915C392.368 167.421 392.63 168.017 392.732 168.648C392.834 169.279 392.772 169.925 392.553 170.527C392.333 171.128 391.962 171.666 391.475 172.091V172.091Z" fill="#EEC1BB"/>
<path d="M384.391 190.015C381.521 192.915 373.415 200.763 370.087 200.479C366.759 200.195 364.866 191.823 364.362 189.058C358.758 187.91 353.082 187.131 347.371 186.726L339.738 264.64L396.421 269.125L404.191 188.535C404.191 188.535 394.024 188.879 384.391 190.015Z" fill="#B265FF"/>
<path opacity="0.2" d="M358.195 199.657C358.195 199.657 369.858 204.59 387.872 201.555L386.147 209.389C386.147 209.389 372.896 212.558 356.455 205.801L358.195 199.657Z" fill="white"/>
<path opacity="0.2" d="M357.004 216.968C357.004 216.968 368.667 221.916 386.681 218.866L385.017 226.714C385.017 226.714 371.766 229.869 355.325 223.112L357.004 216.968Z" fill="white"/>
<path opacity="0.2" d="M355.615 235.803C355.615 235.803 367.477 240.288 385.338 236.461L384.01 244.369C384.01 244.369 370.881 248.077 354.088 242.007L355.615 235.803Z" fill="white"/>
<path opacity="0.2" d="M354.791 252.083C354.791 252.083 364.805 258.062 382.666 254.25L383.201 261.934C383.201 261.934 370.102 265.641 353.386 259.572L354.791 252.083Z" fill="white"/>
<path d="M337.968 283.266L356.287 284.672L361.721 236.177L360.683 188.191C353.05 186.472 345.814 184.483 345.814 184.483L337.968 283.266Z" fill="#263238"/>
<path d="M377.857 236.91L375.842 286.241L398.039 287.945L405.871 186.756C405.871 186.756 396.421 188.505 387.551 189.745L377.857 236.91Z" fill="#263238"/>
<path opacity="0.7" d="M356.409 188.49L352.623 199.642L355.081 204.859L348.562 207.475L358.195 234.578L351.203 208.536L358.195 206.1L354.485 198.805L356.409 188.49Z" fill="black"/>
<path opacity="0.7" d="M390.574 191.031L392.91 203.633L388.437 206.414L395.307 211.526L380.605 235.206L392.696 212.558L385.43 206.414L390.864 202.781L390.574 191.031Z" fill="black"/>
<path d="M389.963 229.51C391.38 229.51 392.528 228.385 392.528 226.998C392.528 225.611 391.38 224.487 389.963 224.487C388.547 224.487 387.399 225.611 387.399 226.998C387.399 228.385 388.547 229.51 389.963 229.51Z" fill="#B265FF"/>
<path d="M397.642 232.709C397.642 233.206 397.491 233.692 397.209 234.106C396.927 234.519 396.525 234.841 396.056 235.031C395.586 235.22 395.07 235.269 394.572 235.171C394.074 235.073 393.617 234.832 393.259 234.479C392.901 234.127 392.658 233.678 392.56 233.19C392.463 232.702 392.516 232.196 392.713 231.738C392.909 231.279 393.24 230.888 393.664 230.614C394.088 230.339 394.585 230.195 395.093 230.198C395.429 230.198 395.762 230.263 396.072 230.389C396.382 230.515 396.664 230.701 396.901 230.934C397.138 231.167 397.325 231.444 397.453 231.749C397.58 232.054 397.644 232.38 397.642 232.709Z" fill="#B265FF"/>
<path opacity="0.3" d="M397.642 232.709C397.642 233.206 397.491 233.692 397.209 234.106C396.927 234.519 396.525 234.841 396.056 235.031C395.586 235.22 395.07 235.269 394.572 235.171C394.074 235.073 393.617 234.832 393.259 234.479C392.901 234.127 392.658 233.678 392.56 233.19C392.463 232.702 392.516 232.196 392.713 231.738C392.909 231.279 393.24 230.888 393.664 230.614C394.088 230.339 394.585 230.195 395.093 230.198C395.429 230.198 395.762 230.263 396.072 230.389C396.382 230.515 396.664 230.701 396.901 230.934C397.138 231.167 397.325 231.444 397.453 231.749C397.58 232.054 397.644 232.38 397.642 232.709Z" fill="black"/>
<path d="M400.039 222.215C400.039 222.921 399.825 223.612 399.424 224.2C399.023 224.787 398.453 225.245 397.786 225.515C397.12 225.786 396.386 225.857 395.678 225.719C394.971 225.581 394.321 225.241 393.81 224.741C393.3 224.241 392.953 223.605 392.812 222.912C392.671 222.219 392.743 221.5 393.019 220.847C393.296 220.195 393.763 219.637 394.363 219.244C394.963 218.851 395.669 218.642 396.39 218.642C396.87 218.64 397.345 218.731 397.789 218.91C398.232 219.089 398.635 219.352 398.975 219.684C399.314 220.016 399.583 220.411 399.765 220.845C399.948 221.279 400.041 221.745 400.039 222.215V222.215Z" fill="#B265FF"/>
<path opacity="0.3" d="M400.039 222.215C400.039 222.921 399.825 223.612 399.424 224.2C399.023 224.787 398.453 225.245 397.786 225.515C397.12 225.786 396.386 225.857 395.678 225.719C394.971 225.581 394.321 225.241 393.81 224.741C393.3 224.241 392.953 223.605 392.812 222.912C392.671 222.219 392.743 221.5 393.019 220.847C393.296 220.195 393.763 219.637 394.363 219.244C394.963 218.851 395.669 218.642 396.39 218.642C396.87 218.64 397.345 218.731 397.789 218.91C398.232 219.089 398.635 219.352 398.975 219.684C399.314 220.016 399.583 220.411 399.765 220.845C399.948 221.279 400.041 221.745 400.039 222.215V222.215Z" fill="white"/>
<path opacity="0.3" d="M343.662 261.77L353.386 249.616L355.539 251.32L345.921 263.698L343.662 261.77Z" fill="white"/>
<path opacity="0.3" d="M392.467 263.324L382.758 251.171L380.605 252.875L390.223 265.253L392.467 263.324Z" fill="white"/>
<path d="M275.271 195.381L277.85 188.415C277.85 188.415 274.797 183.841 275.271 182.211C275.744 180.582 278.797 179.221 280.034 178.22C280.598 177.786 281.56 176.486 282.323 176.605C284.613 177.039 287.346 182.002 287.392 184.274C287.392 186.083 283.575 190.418 283.575 190.418L280.14 199.313L275.271 195.381Z" fill="#A97B79"/>
<path d="M225.961 204.859C225.961 204.859 225.503 203.708 246.937 213.35C269.836 223.635 278.232 190.179 278.232 190.179L285.483 194.29C285.483 194.29 282.049 222.319 265.638 226.625C249.227 230.93 236.235 225.13 227.778 220.75C224.068 218.791 220.45 215.443 225.961 204.859Z" fill="#65D1FF"/>
<path opacity="0.2" d="M227.778 220.75C226.282 220.044 225.011 218.954 224.099 217.596L228.099 212.483L231.594 215.473C231.594 215.473 236.602 224.442 242.494 226.715C237.364 225.306 232.424 223.304 227.778 220.75V220.75Z" fill="black"/>
<path d="M183.354 208.596C183.354 208.596 158.043 219.06 151.021 236.252C145.052 250.872 172.79 266.449 172.79 266.449L178.377 258.974C178.377 258.974 163.111 247.015 163.631 242.022C164.058 237.792 170.622 232.066 179.935 226.341C184.026 223.829 188.285 222.035 183.354 208.596Z" fill="#65D1FF"/>
<path opacity="0.2" d="M180.805 219.479L185.537 218.776C185.369 223.261 182.621 224.756 179.934 226.341C177.248 227.925 174.943 229.54 172.851 231.109L180.805 219.479Z" fill="black"/>
<path d="M205.398 160.984C205.398 160.984 196.239 162.105 186.926 178.28C185.964 178.342 185.049 178.714 184.326 179.339C183.602 179.964 183.11 180.806 182.927 181.733C181.782 185.291 177.584 177.936 180.545 172.599C183.507 167.262 190.27 150.983 205.398 160.984Z" fill="#65D1FF"/>
<path opacity="0.2" d="M185.385 176.067C187.212 175.532 188.865 174.537 190.178 173.182C189.109 174.677 188.026 176.381 186.926 178.28C185.964 178.342 185.049 178.714 184.326 179.339C183.602 179.964 183.11 180.805 182.927 181.733C182.927 181.733 183.11 176.321 185.385 176.067Z" fill="black"/>
<path d="M265.958 431.964L271.423 456.406L280.156 455.673L278.003 430.963L265.958 431.964Z" fill="#A97B79"/>
<path d="M281.682 451.084C281.635 451.09 281.588 451.083 281.545 451.065C281.502 451.046 281.465 451.017 281.438 450.979C281.412 450.942 281.397 450.898 281.397 450.852C281.397 450.807 281.412 450.763 281.438 450.725C281.529 450.606 283.941 447.735 285.56 447.586C285.865 447.558 286.17 447.643 286.414 447.825C286.559 447.919 286.67 448.054 286.733 448.212C286.795 448.369 286.807 448.543 286.766 448.707C286.582 449.305 285.529 449.918 284.43 450.322C283.541 450.662 282.621 450.918 281.682 451.084V451.084ZM282.247 450.561C283.957 450.142 286.185 449.305 286.369 448.587C286.369 448.498 286.369 448.363 286.155 448.169C286.086 448.107 286.003 448.063 285.912 448.039C285.822 448.016 285.727 448.014 285.636 448.034C285.49 448.048 285.347 448.078 285.208 448.124C284.076 448.751 283.072 449.577 282.247 450.561V450.561Z" fill="#65D1FF"/>
<path d="M281.56 451.114C281.522 451.104 281.487 451.085 281.457 451.059C281.428 451.033 281.406 451.001 281.392 450.964C281.009 449.707 281.036 448.364 281.468 447.122C281.577 446.931 281.723 446.762 281.899 446.626C282.074 446.49 282.276 446.389 282.491 446.33C283.087 446.181 283.377 446.33 283.499 446.629C284.064 447.526 282.674 450.187 281.789 451.024C281.761 451.056 281.726 451.082 281.686 451.097C281.646 451.113 281.603 451.119 281.56 451.114V451.114ZM282.507 446.779C282.241 446.875 282.019 447.06 281.881 447.302C281.515 448.291 281.467 449.365 281.743 450.381C282.583 449.35 283.407 447.391 283.132 446.794C283.132 446.794 283.01 446.614 282.629 446.719H282.507V446.779Z" fill="#65D1FF"/>
<path d="M280.308 450.217L270.691 453.79C270.512 453.854 270.362 453.977 270.267 454.138C270.172 454.3 270.138 454.489 270.172 454.672L271.408 462.968C271.431 463.142 271.488 463.31 271.577 463.462C271.666 463.614 271.785 463.748 271.927 463.855C272.069 463.962 272.231 464.04 272.404 464.086C272.577 464.131 272.757 464.143 272.935 464.12H273.225C276.66 462.759 279.682 461.429 283.987 459.829C289.086 457.946 288.033 459.022 294.047 456.839C297.665 455.539 296.78 451.278 295.162 451.652C287.834 453.401 286.308 451.652 282.644 450.157C281.884 449.896 281.053 449.917 280.308 450.217V450.217Z" fill="#263238"/>
<path opacity="0.2" d="M269.454 447.556L279.255 445.284L278.003 430.963L265.958 431.964L269.454 447.556Z" fill="black"/>
<path d="M232.923 278.871C232.923 278.871 235.732 295.764 239.777 301.848C248.937 315.586 267.256 347.487 270.584 365.486C275.072 389.404 279.56 440.231 279.56 440.231L266.905 442.219C266.905 442.219 252.799 391.393 252.143 374.949C252.063 373.034 251.38 371.191 250.189 369.672C244.632 362.646 228.938 342.42 220.237 327.949C219.137 326.067 217.421 324.603 215.367 323.793C210.07 321.805 194.926 299.77 194.926 278.797L232.923 278.871Z" fill="#263238"/>
<path d="M264.096 439.349L265.683 444.835L282.018 442.13L281.56 436.12L264.096 439.349Z" fill="#263238"/>
<path opacity="0.6" d="M214.252 302.356L216.741 305.705C220.192 319.351 225.184 332.577 231.625 345.14C227.457 339.295 223.381 333.301 220.237 328.054C219.137 326.172 217.421 324.708 215.367 323.898C211.627 322.493 205.261 318.741 201.841 309.278L214.252 302.356Z" fill="black"/>
<path d="M201.032 448.991L205.841 473.492L215.229 472.685L213.092 447.99L201.032 448.991Z" fill="#A97B79"/>
<path d="M216.145 471.564C216.1 471.556 216.058 471.534 216.025 471.502C215.993 471.47 215.971 471.429 215.962 471.385C215.949 471.343 215.951 471.298 215.968 471.257C215.985 471.216 216.015 471.182 216.054 471.16C216.206 471.071 219.428 469.142 221.015 469.516C221.308 469.58 221.565 469.751 221.733 469.994C221.837 470.133 221.893 470.301 221.893 470.473C221.893 470.645 221.837 470.812 221.733 470.951C220.947 471.536 219.969 471.818 218.985 471.743C218.035 471.756 217.086 471.696 216.145 471.564V471.564ZM216.863 471.25C218.618 471.4 221 471.25 221.443 470.712C221.443 470.637 221.549 470.503 221.443 470.234C221.397 470.154 221.333 470.086 221.257 470.034C221.18 469.982 221.092 469.948 221 469.935C220.858 469.912 220.714 469.912 220.572 469.935C219.256 470.135 217.995 470.593 216.863 471.28V471.25Z" fill="#65D1FF"/>
<path d="M216.023 471.549C215.989 471.53 215.96 471.501 215.942 471.467C215.923 471.432 215.914 471.394 215.916 471.355C215.973 470.044 216.448 468.784 217.275 467.752C217.439 467.605 217.632 467.492 217.842 467.42C218.052 467.349 218.274 467.319 218.496 467.333C219.122 467.333 219.321 467.677 219.351 467.931C219.58 468.963 217.382 471.026 216.298 471.549H216.206C216.179 471.565 216.147 471.573 216.115 471.573C216.083 471.573 216.051 471.565 216.023 471.549V471.549ZM218.359 467.752C218.077 467.761 217.806 467.867 217.596 468.051C216.928 468.874 216.524 469.873 216.435 470.921C217.58 470.204 219.015 468.589 218.939 467.931C218.939 467.931 218.939 467.722 218.496 467.692L218.359 467.752Z" fill="#65D1FF"/>
<path d="M215.168 470.293L204.894 470.607C204.705 470.611 204.523 470.678 204.378 470.798C204.234 470.918 204.136 471.083 204.101 471.265L202.574 479.517C202.506 479.867 202.582 480.23 202.785 480.526C202.988 480.823 203.301 481.029 203.658 481.102C203.754 481.116 203.852 481.116 203.948 481.102C207.657 480.937 210.94 480.638 215.565 480.504C221 480.339 219.641 481.027 226.053 480.922C229.9 480.922 230.48 476.542 228.831 476.437C221.321 475.735 220.481 473.552 217.504 471.011C216.846 470.491 216.012 470.235 215.168 470.293Z" fill="#263238"/>
<path opacity="0.2" d="M214.497 464.179L213.092 447.99L201.032 448.991L204.116 464.688L214.497 464.179Z" fill="black"/>
<path d="M214.955 278.871L217.077 331.88C217.077 331.88 213.916 372.033 213.687 385.488C213.397 403.815 216.451 458.738 216.451 458.738L201.963 460.352C201.963 460.352 193.277 414.743 193.277 387.939C193.277 387.939 188.331 358.505 186.667 327.022C186.102 316.289 178.301 296.212 183.354 280.067L214.955 278.871Z" fill="#263238"/>
<path d="M199.689 456.989L200.712 462.595L218.313 460.831V455.21L199.689 456.989Z" fill="#263238"/>
<path d="M182.469 282.399L179.141 215.219C179.018 213.478 179.599 211.759 180.758 210.433C181.918 209.108 183.563 208.282 185.339 208.133L225.03 204.844C226.811 204.694 228.581 205.238 229.956 206.357C231.33 207.476 232.199 209.081 232.373 210.824L233.808 279.933L182.469 282.399Z" fill="#65D1FF"/>
<path d="M196.925 207.37C198.925 202.078 196.574 191.883 194.712 186.681L208.009 194.888C207.535 199.537 208.711 204.799 214.97 205.846C214.97 205.846 215.275 214.247 210.253 215.428C205.23 216.609 196.925 207.37 196.925 207.37Z" fill="#A97B79"/>
<path opacity="0.2" d="M198.376 191.031L205.917 193.573L207.963 194.843C207.956 194.953 207.956 195.063 207.963 195.172C207.879 196.087 207.879 197.008 207.963 197.923C206.39 198.129 204.789 197.98 203.284 197.488C201.778 196.996 200.408 196.173 199.277 195.082C197.918 193.573 197.735 191.495 198.376 191.031Z" fill="black"/>
<path d="M191.094 178.28C193.384 186.307 194.33 191.106 199.429 194.38C207.062 199.328 216.542 193.423 216.725 184.917C216.893 177.203 213.107 165.483 204.268 163.989C202.324 163.645 200.322 163.794 198.453 164.421C196.584 165.049 194.91 166.134 193.589 167.573C192.269 169.013 191.347 170.759 190.91 172.646C190.473 174.533 190.537 176.498 191.094 178.355V178.28Z" fill="#A97B79"/>
<path d="M204.589 177.846C204.742 178.504 205.215 178.967 205.658 178.878C206.1 178.788 206.345 178.175 206.192 177.502C206.039 176.83 205.566 176.396 205.123 176.486C204.681 176.576 204.482 177.188 204.589 177.846Z" fill="#2E353A"/>
<path d="M212.222 176.232C212.375 176.889 212.848 177.353 213.291 177.263C213.733 177.173 213.962 176.546 213.825 175.903C213.688 175.26 213.199 174.767 212.756 174.871C212.314 174.976 212.115 175.574 212.222 176.232Z" fill="#2E353A"/>
<path d="M209.444 177.084C210.697 178.934 212.208 180.604 213.932 182.047C213.545 182.461 213.073 182.789 212.546 183.011C212.02 183.232 211.451 183.342 210.879 183.332L209.444 177.084Z" fill="#5F3F3F"/>
<path d="M201.292 175.29C201.221 175.305 201.148 175.305 201.078 175.29C200.984 175.239 200.912 175.156 200.875 175.057C200.839 174.958 200.84 174.85 200.88 174.752C201.143 174.175 201.542 173.668 202.043 173.271C202.544 172.873 203.134 172.597 203.765 172.464C203.822 172.449 203.881 172.445 203.94 172.454C203.998 172.463 204.054 172.484 204.103 172.516C204.152 172.548 204.194 172.59 204.225 172.639C204.257 172.688 204.277 172.743 204.285 172.8C204.292 172.858 204.287 172.916 204.27 172.971C204.253 173.026 204.224 173.077 204.184 173.121C204.145 173.164 204.097 173.199 204.043 173.222C203.989 173.245 203.931 173.257 203.872 173.257V173.257C203.375 173.367 202.913 173.591 202.523 173.911C202.133 174.23 201.826 174.637 201.628 175.095C201.588 175.149 201.538 175.193 201.48 175.227C201.423 175.26 201.358 175.282 201.292 175.29V175.29Z" fill="#2E353A"/>
<path d="M214.527 172.584C214.46 172.592 214.393 172.582 214.331 172.556C214.269 172.529 214.216 172.488 214.176 172.435C213.876 172.037 213.485 171.713 213.034 171.49C212.583 171.267 212.086 171.15 211.581 171.149C211.527 171.155 211.473 171.151 211.422 171.136C211.37 171.121 211.322 171.096 211.281 171.062C211.24 171.029 211.206 170.987 211.181 170.941C211.156 170.894 211.142 170.843 211.138 170.79C211.129 170.685 211.163 170.582 211.231 170.501C211.3 170.42 211.398 170.368 211.504 170.357C212.152 170.343 212.793 170.481 213.374 170.759C213.956 171.038 214.461 171.448 214.848 171.956C214.919 172.029 214.958 172.125 214.958 172.225C214.958 172.326 214.919 172.422 214.848 172.494V172.494C214.803 172.53 214.752 172.556 214.697 172.571C214.642 172.587 214.584 172.591 214.527 172.584Z" fill="#2E353A"/>
<path d="M188.712 186.681C190.217 188.165 192.256 189.013 194.391 189.043C197.215 189.043 197.887 186.397 196.467 184.155C195.2 182.151 192.193 179.67 189.644 180.791C189.09 181.032 188.607 181.405 188.239 181.876C187.87 182.347 187.629 182.901 187.536 183.487C187.444 184.073 187.503 184.673 187.708 185.231C187.914 185.789 188.259 186.288 188.712 186.681V186.681Z" fill="#A97B79"/>
<path d="M213.962 185.47C210.577 185.815 207.228 186.435 203.948 187.324C205.169 188.953 207.001 190.06 210.787 189.148C214.573 188.236 213.962 185.47 213.962 185.47Z" fill="#2E353A"/>
<path d="M213.642 185.485C213.52 185.934 213.504 187.1 212.756 187.428C210.599 187.923 208.411 188.282 206.207 188.505C205.52 188.505 204.818 187.772 204.284 187.249C207.362 186.469 210.488 185.88 213.642 185.485V185.485Z" fill="white"/>
<path d="M187.522 176.067C185.614 182.047 189.232 179.909 189.232 179.909C189.232 179.909 191.995 183.602 193.995 183.333C194.263 183.292 194.52 183.198 194.749 183.056C194.979 182.913 195.176 182.726 195.328 182.506C195.48 182.285 195.584 182.036 195.633 181.775C195.682 181.513 195.675 181.244 195.613 180.986C197.277 180.388 196.193 176.067 196.193 176.067C196.193 176.067 198.193 176.695 198.483 173.9C198.687 172.194 199.53 170.622 200.849 169.49C200.849 169.49 200.009 172.21 203.063 171.478C206.116 170.745 204.589 167.158 204.589 167.158C204.589 167.158 209.505 170.611 213.077 167.531C216.649 164.452 208.574 163.69 208.574 163.69C208.574 163.69 210.863 162.374 209.016 161.268C203.353 157.949 193.414 157.546 187.522 176.067Z" fill="#263238"/>
<path d="M177.217 260.499L181.232 263.025C181.232 263.025 186.453 261.187 187.98 261.934C189.506 262.682 190.239 265.985 190.911 267.376C191.216 267.988 192.285 269.274 192.01 269.917C191.079 272.01 185.537 273.52 183.247 273.041C181.461 272.668 177.98 268.048 177.98 268.048L173.66 265.253L177.217 260.499Z" fill="#A97B79"/>
<path d="M268.065 138.71L286.72 136.721L290.75 148.86L289.575 150.295L270.904 152.283L266.889 140.145L268.065 138.71Z" fill="#263238"/>
<path opacity="0.3" d="M268.065 138.71L286.72 136.721L290.75 148.86L289.575 150.295L270.904 152.283L266.889 140.145L268.065 138.71Z" fill="white"/>
<path opacity="0.5" d="M272.095 150.848L290.75 148.86L286.72 136.721L268.065 138.71L272.095 150.848Z" fill="white"/>
<path d="M273.729 149.264L288.201 147.724L285.071 138.306L270.614 139.846L273.729 149.264Z" fill="#263238"/>
<path opacity="0.3" d="M273.729 149.264L288.201 147.724L285.071 138.306L270.614 139.846L273.729 149.264Z" fill="white"/>
<path d="M258.279 168.219C255.883 168.473 253.578 165.379 253.12 161.298C252.662 157.217 254.234 153.718 256.631 153.464L261.409 152.956C263.806 152.702 266.111 155.781 266.569 159.863C267.027 163.944 265.454 167.442 263.058 167.696L258.279 168.219Z" fill="#263238"/>
<path opacity="0.1" d="M258.279 168.219C255.883 168.473 253.578 165.379 253.12 161.298C252.662 157.217 254.234 153.718 256.631 153.464L261.409 152.956C263.806 152.702 266.111 155.781 266.569 159.863C267.027 163.944 265.454 167.442 263.058 167.696L258.279 168.219Z" fill="white"/>
<path d="M257.913 160.789C258.371 164.855 260.676 167.95 263.073 167.696C265.47 167.442 267.042 163.929 266.584 159.862C266.126 155.796 263.821 152.702 261.424 152.956C259.028 153.21 257.44 156.723 257.913 160.789Z" fill="#263238"/>
<path d="M264.416 166.051C262.508 166.261 260.661 163.794 260.295 160.535C259.928 157.276 261.195 154.466 263.103 154.272L266.935 153.853C268.843 153.659 270.691 156.125 271.057 159.384C271.423 162.643 270.156 165.364 268.248 165.648L264.416 166.051Z" fill="#263238"/>
<path opacity="0.3" d="M264.416 166.051C262.508 166.261 260.661 163.794 260.295 160.535C259.928 157.276 261.195 154.466 263.103 154.272L266.935 153.853C268.843 153.659 270.691 156.125 271.057 159.384C271.423 162.643 270.156 165.364 268.248 165.648L264.416 166.051Z" fill="white"/>
<path d="M290.202 149.878L267.044 152.354C265.778 152.489 264.864 153.603 265.002 154.843L266.147 165.111C266.285 166.351 267.423 167.246 268.689 167.11L291.847 164.635C293.113 164.5 294.027 163.385 293.888 162.146L292.744 151.877C292.605 150.638 291.468 149.743 290.202 149.878Z" fill="#263238"/>
<path opacity="0.3" d="M274.674 166.443L291.519 164.642C292.977 164.486 294.031 163.202 293.871 161.774L292.803 152.189C292.644 150.761 291.332 149.729 289.874 149.885L273.029 151.686C271.571 151.842 270.517 153.126 270.677 154.554L271.745 164.139C271.904 165.567 273.216 166.599 274.674 166.443Z" fill="white"/>
<path d="M274.515 164.958L291.937 163.096L290.623 151.311L273.202 153.174L274.515 164.958Z" fill="#263238"/>
<path d="M277.102 174.453C277.262 173.417 277.262 172.364 277.102 171.328C276.812 170.581 276.537 170.85 275.331 170.85C273.362 170.85 270.752 171.314 268.859 170.671C265.149 169.4 266.615 162.225 266.615 159.339C266.655 158.921 266.853 158.532 267.171 158.249C267.489 157.966 267.903 157.809 268.332 157.809C268.761 157.809 269.175 157.966 269.493 158.249C269.811 158.532 270.009 158.921 270.049 159.339V165.962C270.049 166.59 270.049 167.352 270.172 167.457C270.66 167.83 273.026 167.457 273.576 167.457C275.438 167.457 278.156 166.978 279.575 168.398C280.995 169.819 280.537 172.599 280.537 174.378C280.497 174.797 280.298 175.186 279.981 175.469C279.663 175.752 279.249 175.909 278.82 175.909C278.39 175.909 277.976 175.752 277.659 175.469C277.341 175.186 277.143 174.797 277.102 174.378V174.453Z" fill="#263238"/>
<g opacity="0.2">
<path opacity="0.2" d="M277.102 174.453C277.262 173.417 277.262 172.364 277.102 171.328C276.812 170.581 276.537 170.85 275.331 170.85C273.362 170.85 270.752 171.314 268.859 170.671C265.149 169.4 266.615 162.225 266.615 159.339C266.655 158.921 266.853 158.532 267.171 158.249C267.489 157.966 267.903 157.809 268.332 157.809C268.761 157.809 269.175 157.966 269.493 158.249C269.811 158.532 270.009 158.921 270.049 159.339V165.962C270.049 166.59 270.049 167.352 270.172 167.457C270.66 167.83 273.026 167.457 273.576 167.457C275.438 167.457 278.156 166.978 279.575 168.398C280.995 169.819 280.537 172.599 280.537 174.378C280.497 174.797 280.298 175.186 279.981 175.469C279.663 175.752 279.249 175.909 278.82 175.909C278.39 175.909 277.976 175.752 277.659 175.469C277.341 175.186 277.143 174.797 277.102 174.378V174.453Z" fill="white"/>
</g>
<path d="M278.003 193.378H279.667C280.578 193.378 281.316 192.655 281.316 191.764V173.989C281.316 173.098 280.578 172.375 279.667 172.375H278.003C277.092 172.375 276.354 173.098 276.354 173.989V191.764C276.354 192.655 277.092 193.378 278.003 193.378Z" fill="#263238"/>
<path d="M228.099 460.158C230.279 461.276 232.521 462.275 234.816 463.148L235.09 463.237H235.732C238.998 463.506 242.403 463.237 245.67 463.237H318.366C321.648 463.237 325.022 463.462 328.304 463.237C328.513 463.226 328.722 463.226 328.93 463.237L329.22 463.133C331.517 462.266 333.76 461.268 335.937 460.143C338.594 458.962 340.929 462.819 338.242 464.015C331.083 467.184 327.953 467.722 320.32 467.722H243.716C236.083 467.722 233.029 467.199 225.793 464.015C223.107 462.834 225.427 458.977 228.099 460.158Z" fill="#65D1FF"/>
<path opacity="0.5" d="M228.099 460.158C230.279 461.276 232.521 462.275 234.816 463.148L235.09 463.237H235.732C238.998 463.506 242.403 463.237 245.67 463.237H318.366C321.648 463.237 325.022 463.462 328.304 463.237C328.513 463.226 328.722 463.226 328.93 463.237L329.22 463.133C331.517 462.266 333.76 461.268 335.937 460.143C338.594 458.962 340.929 462.819 338.242 464.015C331.083 467.184 327.953 467.722 320.32 467.722H243.716C236.083 467.722 233.029 467.199 225.793 464.015C223.107 462.834 225.427 458.977 228.099 460.158Z" fill="white"/>
<path d="M308.993 475.227H316.626L319.679 467.737H305.94L308.993 475.227Z" fill="#263238"/>
<path opacity="0.5" d="M308.993 475.227H316.626L319.679 467.737H305.94L308.993 475.227Z" fill="white"/>
<path d="M306.764 475.376C306.749 476.565 307.096 477.731 307.761 478.726C308.427 479.721 309.379 480.499 310.498 480.96C311.617 481.422 312.851 481.547 314.043 481.319C315.234 481.09 316.329 480.519 317.188 479.679C318.047 478.838 318.63 477.766 318.863 476.599C319.096 475.432 318.969 474.223 318.497 473.128C318.025 472.032 317.231 471.099 316.215 470.448C315.199 469.796 314.008 469.456 312.794 469.471C311.201 469.491 309.679 470.119 308.552 471.222C307.426 472.325 306.784 473.816 306.764 475.376V475.376Z" fill="#263238"/>
<path d="M310.153 475.376C310.153 475.888 310.308 476.389 310.597 476.815C310.886 477.241 311.297 477.575 311.779 477.773C312.261 477.972 312.792 478.026 313.306 477.931C313.819 477.835 314.292 477.593 314.666 477.236C315.04 476.878 315.298 476.42 315.407 475.919C315.516 475.419 315.472 474.898 315.281 474.422C315.089 473.945 314.758 473.535 314.329 473.242C313.9 472.949 313.393 472.787 312.87 472.775C312.516 472.767 312.165 472.829 311.835 472.956C311.506 473.083 311.206 473.273 310.953 473.515C310.699 473.758 310.498 474.047 310.361 474.367C310.224 474.686 310.153 475.03 310.153 475.376V475.376Z" fill="#65D1FF"/>
<path d="M244.189 475.227H251.837L254.89 467.737H241.136L244.189 475.227Z" fill="#263238"/>
<path opacity="0.5" d="M244.189 475.227H251.837L254.89 467.737H241.136L244.189 475.227Z" fill="white"/>
<path d="M248.005 481.281C251.336 481.281 254.035 478.637 254.035 475.376C254.035 472.115 251.336 469.471 248.005 469.471C244.675 469.471 241.975 472.115 241.975 475.376C241.975 478.637 244.675 481.281 248.005 481.281Z" fill="#263238"/>
<path d="M245.349 475.376C245.346 475.895 245.501 476.403 245.793 476.835C246.085 477.268 246.502 477.605 246.991 477.805C247.48 478.005 248.018 478.058 248.538 477.957C249.058 477.857 249.535 477.608 249.91 477.241C250.284 476.874 250.539 476.407 250.642 475.898C250.744 475.389 250.69 474.862 250.486 474.383C250.282 473.904 249.937 473.496 249.495 473.21C249.054 472.923 248.535 472.772 248.005 472.775C247.301 472.775 246.625 473.049 246.127 473.537C245.629 474.025 245.349 474.686 245.349 475.376Z" fill="#65D1FF"/>
<path d="M60.051 178.385C60.051 178.385 52.6317 168.712 43.7622 175.753C32.5418 184.633 43.9149 215.548 37.839 223.396C32.9997 229.645 43.0295 227.881 43.289 212.02C44.4263 218.624 43.6106 225.408 40.938 231.573C36.4804 240.871 43.1821 235.744 45.8689 227.357C48.2809 219.883 48.9221 209.613 49.0748 202.542C50.4702 209.03 50.5014 215.729 49.1664 222.23C47.4718 230.467 52.2195 224.891 53.0134 214.965C53.5935 207.49 50.4487 186.397 53.8835 182.555C55.9444 180.238 60.9669 183.153 60.9669 183.153L60.051 178.385Z" fill="#263238"/>
<path d="M57.2724 180.074C57.2724 180.074 49.4868 178.19 49.1204 185.814C48.754 193.438 49.8226 202.348 47.9297 202.602C46.0367 202.856 46.7084 192.392 47.0595 186.98C47.5785 179.057 52.2652 177.562 57.5777 178.519L57.2724 180.074Z" fill="#FFD465"/>
<path d="M58.2343 177.592C58.2343 177.592 51.7157 172.315 46.3268 176.097C40.4494 180.223 42.2203 200.838 42.0982 204.336C41.976 207.834 43.6248 207.565 43.7469 204.246C43.869 200.928 42.2203 181.359 47.2123 177.338C50.5097 174.632 57.5778 178.579 57.5778 178.579L58.2343 177.592Z" fill="#FFD465"/>
<path opacity="0.5" d="M58.2343 177.592C58.2343 177.592 51.7157 172.315 46.3268 176.097C40.4494 180.223 42.2203 200.838 42.0982 204.336C41.976 207.834 43.6248 207.565 43.7469 204.246C43.869 200.928 42.2203 181.359 47.2123 177.338C50.5097 174.632 57.5778 178.579 57.5778 178.579L58.2343 177.592Z" fill="white"/>
<path d="M58.4326 176.68C58.9769 177.143 59.487 177.642 59.9592 178.175L59.5929 182.436C58.8278 182.099 58.0225 181.858 57.1961 181.718C56.8316 180.89 56.7151 179.977 56.8602 179.087C56.8771 178.584 57.032 178.096 57.3087 177.672C57.5854 177.248 57.9737 176.906 58.4326 176.68V176.68Z" fill="#263238"/>
<path opacity="0.4" d="M58.4326 176.68C58.9769 177.143 59.487 177.642 59.9592 178.175L59.5929 182.436C58.8278 182.099 58.0225 181.858 57.1961 181.718C56.8316 180.89 56.7151 179.977 56.8602 179.087C56.8771 178.584 57.032 178.096 57.3087 177.672C57.5854 177.248 57.9737 176.906 58.4326 176.68V176.68Z" fill="white"/>
<path d="M84.8429 214.157C80.9471 214.718 76.9692 214.254 73.3171 212.812C73.1061 212.541 72.9411 212.238 72.8286 211.915C75.7139 207.789 73.1187 200.584 71.012 195.74L82.6904 201.959C82.5378 206.1 82.8736 208.432 88.9495 208.581C89.4455 208.899 89.8713 209.31 90.2013 209.792C89.728 211.616 88.3693 213.53 84.8429 214.157Z" fill="#FFB573"/>
<path opacity="0.2" d="M75.7444 198.267L82.6293 202.004C82.5731 202.967 82.6089 203.933 82.7362 204.889C80.4463 205.053 76.6298 203.932 75.607 201.675C75.3624 200.545 75.4096 199.374 75.7444 198.267V198.267Z" fill="black"/>
<path d="M62.3866 188.49C66.4932 196.308 68.0655 199.687 74.0498 201.944C83.072 205.457 91.972 198.805 90.3386 189.985C88.812 182.002 82.3545 170.551 72.9049 170.835C70.8145 170.876 68.7699 171.442 66.9667 172.478C65.1636 173.515 63.6624 174.987 62.6068 176.754C61.5512 178.521 60.9767 180.525 60.9381 182.572C60.8996 184.619 61.3983 186.641 62.3866 188.445V188.49Z" fill="#FFB573"/>
<path d="M83.881 181.733C84.1863 182.391 84.7817 182.749 85.2091 182.57C85.6366 182.391 85.774 181.703 85.4839 181.075C85.1939 180.447 84.5832 180.044 84.1558 180.238C83.7283 180.432 83.6673 181.075 83.881 181.733Z" fill="#263238"/>
<path d="M84.0337 180.328L85.4381 179.177C85.4381 179.177 85.1633 180.761 84.0337 180.328Z" fill="#263238"/>
<path d="M72.2332 183.916C72.325 183.912 72.4132 183.88 72.4847 183.823C72.5562 183.767 72.6072 183.689 72.6301 183.602C72.8967 182.972 73.2913 182.402 73.7899 181.927C74.2886 181.451 74.8808 181.08 75.5306 180.836C75.5853 180.819 75.636 180.792 75.6796 180.755C75.7232 180.719 75.7589 180.674 75.7845 180.624C75.8101 180.574 75.8252 180.519 75.8288 180.463C75.8324 180.407 75.8244 180.351 75.8054 180.298C75.7642 180.195 75.6844 180.111 75.5822 180.064C75.48 180.017 75.3633 180.01 75.2558 180.044V180.044C74.4706 180.326 73.7571 180.772 73.1642 181.35C72.5713 181.928 72.1131 182.625 71.821 183.392C71.793 183.496 71.8078 183.605 71.8621 183.698C71.9165 183.79 72.006 183.858 72.1111 183.886V183.886C72.1478 183.908 72.1903 183.918 72.2332 183.916V183.916Z" fill="#263238"/>
<path d="M84.7052 177.114C84.7749 177.081 84.8359 177.033 84.8836 176.973C84.9312 176.914 84.9642 176.844 84.98 176.77C84.9897 176.66 84.9577 176.551 84.8901 176.462C84.8226 176.374 84.7241 176.313 84.6137 176.292C83.9344 176.172 83.2357 176.218 82.5785 176.423C81.9212 176.629 81.3254 176.989 80.843 177.473C80.7665 177.548 80.7236 177.65 80.7236 177.757C80.7236 177.863 80.7665 177.965 80.843 178.041C80.9227 178.117 81.0295 178.159 81.1407 178.159C81.2518 178.159 81.3586 178.117 81.4383 178.041V178.041C81.8243 177.673 82.2945 177.401 82.8097 177.247C83.325 177.094 83.8702 177.064 84.3999 177.159C84.504 177.176 84.6111 177.161 84.7052 177.114V177.114Z" fill="#263238"/>
<path d="M76.4008 184.962C76.7061 185.605 77.3015 185.994 77.7289 185.814C78.1564 185.635 78.2785 184.932 77.9885 184.319C77.6984 183.706 77.103 183.288 76.6603 183.467C76.2176 183.647 76.1565 184.259 76.4008 184.962Z" fill="#263238"/>
<path d="M76.5076 183.617L77.912 182.48C77.912 182.48 77.622 184.005 76.5076 183.617Z" fill="#263238"/>
<path d="M80.8279 173.586C80.8279 173.586 75.8817 169.101 70.7524 173.362C62.8904 179.835 70.8745 190.015 68.2487 193.662C68.2487 193.662 58.8602 195.157 58.1732 182.809C57.4405 169.011 78.767 166.321 80.8279 173.586Z" fill="#263238"/>
<path d="M92.369 190.792L90.3387 190.03L89.499 197.071L91.8805 196.936L92.369 190.792Z" fill="#263238"/>
<path opacity="0.1" d="M92.369 190.792L90.3387 190.03L89.499 197.071L91.8805 196.936L92.369 190.792Z" fill="white"/>
<path d="M96.0183 198.53L92.479 198.183C92.1245 198.148 91.7986 197.977 91.573 197.707C91.3475 197.436 91.2407 197.09 91.2762 196.743L91.8848 190.793C91.9203 190.446 92.0952 190.126 92.371 189.906C92.6468 189.685 93.0009 189.58 93.3554 189.615L96.8947 189.962L96.0198 198.515L96.0183 198.53Z" fill="#FFD465"/>
<path d="M70.325 195.471C70.4319 192.556 66.4474 191.943 65.0888 191.823L64.7834 190.927C64.7834 190.927 70.4471 193.408 74.9964 192.227C79.5456 191.046 80.141 185.59 82.553 184.334C84.965 183.078 89.9265 185.186 89.9265 185.186C89.9265 185.186 94.7353 196.443 86.339 201.211C74.2483 208.073 66.707 196.727 66.707 196.727V196.592C68.0351 197.265 70.2181 197.878 70.325 195.471Z" fill="#263238"/>
<path opacity="0.2" d="M70.325 195.471C70.4319 192.556 66.4474 191.943 65.0888 191.823L64.7834 190.927C64.7834 190.927 70.4471 193.408 74.9964 192.227C79.5456 191.046 80.141 185.59 82.553 184.334C84.965 183.078 89.9265 185.186 89.9265 185.186C89.9265 185.186 94.7353 196.443 86.339 201.211C74.2483 208.073 66.707 196.727 66.707 196.727V196.592C68.0351 197.265 70.2181 197.878 70.325 195.471Z" fill="white"/>
<path opacity="0.2" d="M77.5761 196.577C77.6198 197.39 77.9088 198.172 78.4065 198.824C78.9042 199.475 79.5883 199.968 80.3721 200.238C81.1558 200.509 82.004 200.546 82.8091 200.344C83.6143 200.142 84.3401 199.711 84.8948 199.105C85.4495 198.499 85.8079 197.745 85.9248 196.94C86.0417 196.134 85.9118 195.312 85.5515 194.579C85.1911 193.846 84.6166 193.234 83.9007 192.82C83.1848 192.407 82.3597 192.211 81.53 192.257C80.4215 192.319 79.3831 192.808 78.6421 193.618C77.9011 194.427 77.5178 195.492 77.5761 196.577V196.577Z" fill="black"/>
<path d="M75.1185 197.22C75.1714 198.222 75.5266 199.185 76.1392 199.989C76.7517 200.793 77.5941 201.401 78.5596 201.735C79.5251 202.07 80.5703 202.117 81.5629 201.87C82.5555 201.622 83.4508 201.092 84.1355 200.346C84.8202 199.6 85.2635 198.672 85.4092 197.679C85.5549 196.687 85.3966 195.674 84.9541 194.769C84.5117 193.865 83.8051 193.109 82.9238 192.598C82.0426 192.087 81.0263 191.843 80.0036 191.898C78.6373 191.975 77.3574 192.578 76.4426 193.575C75.5277 194.571 75.0518 195.882 75.1185 197.22V197.22Z" fill="#FFD465"/>
<path opacity="0.5" d="M76.2479 197.16C76.2912 197.933 76.5675 198.676 77.0418 199.296C77.5162 199.915 78.1673 200.383 78.913 200.64C79.6587 200.897 80.4655 200.932 81.2315 200.74C81.9974 200.549 82.6883 200.139 83.2167 199.563C83.7451 198.988 84.0873 198.271 84.2002 197.505C84.3132 196.739 84.1917 195.957 83.8511 195.258C83.5105 194.56 82.9661 193.976 82.2867 193.58C81.6073 193.184 80.8234 192.994 80.0339 193.034C78.974 193.092 77.9807 193.559 77.2712 194.332C76.5617 195.105 76.1938 196.122 76.2479 197.16V197.16Z" fill="white"/>
<path d="M62.9362 195.621C63.5076 196.226 64.1956 196.715 64.9606 197.058C65.7257 197.402 66.5526 197.594 67.3938 197.624C69.6532 197.624 70.2486 195.561 69.1494 193.752C68.0503 191.943 65.7909 190.119 63.7453 190.897C63.0395 191.193 62.4824 191.751 62.1963 192.449C61.9101 193.147 61.9181 193.927 62.2187 194.619C62.3756 195.003 62.6212 195.346 62.9362 195.621V195.621Z" fill="#FFB573"/>
<path d="M58.5547 179.162C58.7237 178.51 58.9536 177.874 59.2417 177.263C63.8215 174.079 67.5464 174.274 69.4699 174.617C68.9641 175.201 68.5334 175.844 68.1875 176.531C64.0352 175.081 59.9592 177.981 58.5547 179.162Z" fill="#FFD465"/>
<path d="M58.2036 181.359C58.2036 180.956 58.2036 180.567 58.3257 180.193C61.3624 180.232 64.3924 179.906 67.3479 179.222C67.244 179.885 67.193 180.554 67.1953 181.225C64.2386 181.868 61.179 181.914 58.2036 181.359V181.359Z" fill="#FFD465"/>
<path opacity="0.5" d="M58.2036 181.359C58.2036 180.956 58.2036 180.567 58.3257 180.193C61.3624 180.232 64.3924 179.906 67.3479 179.222C67.244 179.885 67.193 180.554 67.1953 181.225C64.2386 181.868 61.179 181.914 58.2036 181.359V181.359Z" fill="white"/>
<path d="M104.597 207.774L118.962 199.672L131.068 173.705L130.29 168.922C130.185 168.323 130.304 167.707 130.625 167.188L132.152 164.586C132.401 164.185 132.757 163.857 133.182 163.638C133.607 163.419 134.085 163.318 134.564 163.346H134.869C135.369 163.364 135.865 163.25 136.304 163.017L137.968 162.105C138.286 161.93 138.637 161.82 139 161.784C139.363 161.748 139.729 161.786 140.076 161.896C140.423 162.005 140.743 162.184 141.016 162.421C141.289 162.658 141.509 162.947 141.663 163.271L143.662 169.46C143.914 169.997 143.97 170.603 143.823 171.176C143.676 171.749 143.334 172.257 142.853 172.614L137.342 177.398C137.342 177.398 130.519 204.112 127.542 206.937C124.565 209.762 108.871 216.415 108.871 216.415L104.597 207.774Z" fill="#FFB573"/>
<path d="M95.4831 207.954C95.4831 207.954 105.452 205.891 107.406 204.231C107.406 204.231 108.581 201.675 110.459 202.079C112.337 202.482 116.23 209.239 115.848 215.802C115.848 215.802 115.665 219.15 112.947 217.297C108.012 220.022 102.685 222.002 97.1471 223.172C97.1471 223.172 91.4224 213.395 95.4831 207.954Z" fill="#263238"/>
<path opacity="0.2" d="M102.643 210.211C108.612 217.685 112.917 217.327 112.917 217.327C110.068 218.941 107.054 220.259 103.925 221.258C101.437 213.888 99.1469 205.741 102.643 210.211Z" fill="black"/>
<path d="M109.803 363.647L92.7048 376.967L96.2771 385.204L114.535 374.65L109.803 363.647Z" fill="#FFB573"/>
<path d="M97.3608 385.608C97.3359 385.572 97.3225 385.531 97.3225 385.488C97.3225 385.445 97.3359 385.403 97.3608 385.368C97.399 385.343 97.4443 385.329 97.4906 385.329C97.5369 385.329 97.5822 385.343 97.6204 385.368C97.773 385.458 101.025 387.536 101.376 389.135C101.447 389.431 101.398 389.742 101.238 390.003C101.16 390.161 101.031 390.292 100.872 390.375C100.713 390.458 100.532 390.49 100.353 390.466C99.7118 390.361 98.9485 389.375 98.3989 388.328C97.9681 387.455 97.6206 386.544 97.3608 385.608V385.608ZM97.9715 386.116C98.5974 387.79 99.7271 389.913 100.49 390.017C100.597 390.017 100.75 390.017 100.918 389.748C100.959 389.664 100.98 389.572 100.98 389.479C100.98 389.386 100.959 389.294 100.918 389.21C100.886 389.072 100.84 388.936 100.78 388.807C100.026 387.731 99.0737 386.803 97.9715 386.071V386.116Z" fill="#FFD465"/>
<path d="M97.3149 385.503C97.3181 385.463 97.3327 385.425 97.357 385.393C97.3814 385.362 97.4144 385.337 97.4523 385.323C98.7177 384.79 100.122 384.659 101.467 384.95C101.679 385.033 101.871 385.159 102.031 385.318C102.192 385.478 102.317 385.668 102.399 385.876C102.628 386.459 102.399 386.773 102.215 386.908C101.345 387.581 98.4141 386.504 97.4218 385.727C97.4218 385.727 97.4218 385.727 97.4218 385.637C97.3947 385.624 97.371 385.605 97.3525 385.582C97.334 385.559 97.3211 385.532 97.3149 385.503V385.503ZM101.895 385.936C101.768 385.684 101.55 385.487 101.284 385.383C100.209 385.13 99.0798 385.203 98.0477 385.592C99.2385 386.325 101.391 386.908 101.941 386.564C101.941 386.564 102.124 386.429 101.941 386.056V385.936H101.895Z" fill="#FFD465"/>
<path d="M98.109 384.142L93.2697 374.964C93.1818 374.793 93.037 374.657 92.8592 374.578C92.6815 374.499 92.4816 374.482 92.2926 374.53L83.7742 376.728C83.4129 376.823 83.1044 377.053 82.9157 377.369C82.7271 377.686 82.6735 378.062 82.7667 378.417C82.7889 378.511 82.8248 378.602 82.8735 378.686C84.6749 381.975 86.4153 384.83 88.583 388.956C91.1477 393.814 89.8959 392.888 92.8269 398.658C94.5978 402.126 98.9333 400.736 98.3685 399.166C95.6969 392.051 97.3915 390.301 98.4753 386.489C98.6559 385.69 98.5253 384.853 98.109 384.142V384.142Z" fill="#263238"/>
<path opacity="0.1" d="M108.337 378.238L103.971 380.749L98.7043 372.303L101.895 369.806L108.337 378.238Z" fill="black"/>
<path d="M102.948 366.413L103.742 367.564C107.864 363.468 129.267 342.3 140.64 333.914C140.64 333.914 104.109 300.697 85.5757 271.666L111.619 258.586C111.619 258.586 125.16 269.857 147.876 299.785C170.592 329.713 168.073 343.645 138.716 362.691L110.703 377.64L111.497 378.761C111.211 379.487 110.713 380.115 110.063 380.564C109.414 381.014 108.644 381.265 107.849 381.287L99.5898 368.491C99.6359 368.121 99.7653 367.766 99.9686 367.452C100.172 367.137 100.444 366.871 100.766 366.672C101.087 366.473 101.45 366.346 101.827 366.302C102.205 366.257 102.588 366.295 102.948 366.413Z" fill="#FFD465"/>
<path opacity="0.2" d="M98.5363 276.211L103.498 270.575L107.07 274.163C107.07 274.163 116.397 289.441 120.977 314.615C113.634 307.021 105.253 297.872 97.6204 288.349L98.5363 276.211Z" fill="black"/>
<path opacity="0.1" d="M99.6509 368.491C99.6988 368.128 99.8271 367.78 100.027 367.471C100.226 367.162 100.492 366.899 100.806 366.701C101.12 366.503 101.475 366.375 101.845 366.325C102.215 366.275 102.591 366.305 102.948 366.413L103.742 367.564C106.108 365.217 114.169 357.234 122.764 349.281C122.686 354.866 120.587 360.243 116.84 364.455C113.131 368.67 106.887 370.838 101.864 371.929L99.6509 368.491Z" fill="black"/>
<path d="M58.9822 355.201L37.213 356.965L35.5032 365.755L56.6771 366.906L58.9822 355.201Z" fill="#FFB573"/>
<path d="M36.1751 366.637C36.189 366.594 36.215 366.556 36.2501 366.527C36.2852 366.498 36.328 366.479 36.3735 366.473C36.4163 366.482 36.4558 366.501 36.4881 366.53C36.5203 366.559 36.544 366.596 36.5567 366.637C36.5567 366.802 38.0833 370.3 37.5337 371.809C37.4821 371.952 37.4013 372.082 37.2963 372.193C37.1913 372.303 37.0643 372.392 36.9231 372.452C36.7689 372.541 36.5902 372.58 36.4122 372.564C36.2342 372.547 36.0659 372.477 35.9308 372.362C35.4387 371.498 35.2918 370.486 35.5186 369.522C35.6499 368.543 35.8696 367.578 36.1751 366.637ZM36.3888 367.399C35.9766 369.119 35.7171 371.495 36.2819 372.004C36.3582 372.078 36.4804 372.153 36.7857 372.004C36.8748 371.969 36.9544 371.915 37.0181 371.845C37.0817 371.775 37.1276 371.691 37.1521 371.6C37.2082 371.466 37.2442 371.325 37.2589 371.182C37.2165 369.893 36.9211 368.624 36.3888 367.444V367.399Z" fill="#FFD465"/>
<path d="M36.2054 366.637C36.2303 366.606 36.2635 366.583 36.3013 366.57C36.3391 366.557 36.3799 366.554 36.4191 366.563C37.7729 366.809 39.0125 367.468 39.9608 368.446C40.0881 368.63 40.1767 368.838 40.2212 369.056C40.2658 369.274 40.2655 369.499 40.2204 369.717C40.083 370.33 39.7471 370.494 39.4723 370.479C38.3732 370.569 36.5565 368.072 36.1749 366.891C36.1677 366.875 36.1641 366.857 36.1641 366.839C36.1641 366.821 36.1677 366.803 36.1749 366.787C36.1684 366.761 36.1678 366.734 36.1731 366.709C36.1784 366.683 36.1894 366.658 36.2054 366.637V366.637ZM39.7929 369.522C39.8148 369.384 39.8086 369.243 39.7745 369.107C39.7405 368.971 39.6793 368.843 39.5944 368.73C38.8511 367.934 37.8759 367.381 36.8008 367.146C37.3656 368.386 38.8312 370.061 39.4876 370.135C39.4876 370.135 39.7166 370.135 39.7929 369.717V369.582V369.522Z" fill="#FFD465"/>
<path d="M37.6252 365.875L38.816 355.59C38.8402 355.402 38.7972 355.211 38.6943 355.05C38.5913 354.889 38.4348 354.768 38.2511 354.708L29.9312 351.912C29.7568 351.851 29.5718 351.824 29.3866 351.832C29.2015 351.841 29.0199 351.886 28.8525 351.964C28.685 352.041 28.535 352.151 28.4109 352.286C28.2869 352.421 28.1914 352.578 28.1298 352.75C28.1247 352.844 28.1247 352.939 28.1298 353.034C27.7634 356.756 27.5955 360.075 27.0612 364.679C26.42 370.12 25.9163 368.67 25.0919 375.054C24.5881 378.91 28.9847 380.106 29.3969 378.492C31.2135 371.122 33.6103 370.599 36.6787 368.027C37.2559 367.45 37.5933 366.682 37.6252 365.875V365.875Z" fill="#263238"/>
<path opacity="0.1" d="M47.6092 366.413L42.6172 366.144L42.5562 356.532L47.0596 356.158L47.6092 366.413Z" fill="black"/>
<path d="M45.0444 353.781C45.5599 353.24 46.262 352.905 47.0149 352.842C47.7678 352.778 48.5181 352.99 49.1205 353.437V354.738C57.4099 353.527 87.5448 349.401 96.9029 351.927C96.9029 351.927 69.4242 295.046 80.2325 265.223L104.551 260.051C104.551 260.051 106.673 269.588 107.391 272.01C112.26 288.663 117.848 320.714 119.878 340.222C121.908 359.731 110.902 367.773 96.9792 369.986C83.9115 372.079 60.5394 368.147 49.5326 368.072V369.119C48.9097 369.474 48.2085 369.677 47.4883 369.711C46.7682 369.745 46.0504 369.608 45.3956 369.313L45.0444 353.781Z" fill="#FFD465"/>
<path d="M69.134 212.842L68.6455 212.543C69.0271 210.883 71.4697 211.048 71.4697 211.048C71.4697 211.048 78.4768 214.038 83.6824 212.782C88.8881 211.526 87.9874 207.43 87.9874 207.43C88.1572 207.216 88.3728 207.041 88.619 206.918C88.8653 206.794 89.1362 206.725 89.4128 206.715C89.6893 206.705 89.9647 206.754 90.2196 206.86C90.4745 206.965 90.7026 207.124 90.888 207.326C90.9356 207.448 90.9763 207.573 91.0101 207.699C99.9407 207.46 100.551 206.862 100.551 206.862C108.764 216.833 113.268 260.081 113.268 260.081L78.5378 270.545C76.0342 256.403 59.1042 215.936 59.1042 215.936C59.1042 215.936 61.8063 214.053 69.134 212.842Z" fill="#263238"/>
<path opacity="0.2" d="M65.1498 224.906L69.7296 221.258C69.7296 221.258 72.7828 230.123 67.5313 237.089C66.3711 234.099 65.2719 231.423 64.3254 229.121C64.7224 226.744 65.1498 224.906 65.1498 224.906Z" fill="black"/>
<path d="M56.8908 219.404L40.4189 221.213L14.9553 207.311L12.6959 203.005C12.4076 202.463 11.9313 202.039 11.3525 201.809L8.49775 200.703C8.0566 200.52 7.57257 200.46 7.09867 200.528C6.62477 200.597 6.17926 200.792 5.81095 201.092L5.58196 201.286C5.18972 201.592 4.72023 201.788 4.22329 201.854L2.31505 202.078C1.95219 202.125 1.60295 202.243 1.28924 202.428C0.975521 202.612 0.704091 202.858 0.491964 203.15C0.279838 203.442 0.131593 203.774 0.056518 204.124C-0.018557 204.475 -0.018842 204.837 0.0556853 205.188L2.19292 211.332C2.30977 211.914 2.62949 212.438 3.09735 212.814C3.56522 213.19 4.15212 213.396 4.7576 213.395L12.0853 214.053C12.0853 214.053 33.7324 231.543 37.8389 232.096C41.9454 232.649 58.6159 228.897 58.6159 228.897L56.8908 219.404Z" fill="#FFB573"/>
<path d="M57.2267 216.34C55.9848 216.804 54.6766 217.077 53.3491 217.147C53.3491 217.147 50.8608 215.757 49.609 217.147C48.3571 218.537 49.2884 226.266 53.5628 231.334C53.5628 231.334 55.7459 233.92 56.8145 230.885C59.0679 231.007 61.3272 230.795 63.5162 230.257C64.8656 229.983 66.1255 229.389 67.1852 228.526C68.2449 227.664 69.0719 226.559 69.5936 225.31C70.1152 224.061 70.3155 222.706 70.1769 221.363C70.0382 220.021 69.5648 218.732 68.7983 217.611C68.4422 217.068 67.9667 216.611 67.4067 216.272C66.8467 215.933 66.2164 215.722 65.5619 215.652C62.7658 215.569 59.9692 215.8 57.2267 216.34V216.34Z" fill="#263238"/>
<path d="M136.06 152.866L135.388 151.267L136.365 150.878L137.037 152.493C139.907 151.461 142.548 151.566 143.724 154.406C144.166 155.145 144.44 155.969 144.529 156.821C144.618 157.673 144.519 158.533 144.239 159.345C143.959 160.156 143.504 160.899 142.905 161.523C142.306 162.147 141.577 162.638 140.768 162.962C139.958 163.287 139.087 163.437 138.213 163.403C137.339 163.369 136.483 163.152 135.702 162.766C134.921 162.38 134.234 161.834 133.688 161.166C133.141 160.497 132.748 159.721 132.534 158.891C131.328 155.946 133.205 154.062 136.06 152.866Z" fill="#263238"/>
<path opacity="0.6" d="M136.06 152.866L135.388 151.267L136.365 150.878L137.037 152.493C139.907 151.461 142.548 151.566 143.724 154.406C144.166 155.145 144.44 155.969 144.529 156.821C144.618 157.673 144.519 158.533 144.239 159.345C143.959 160.156 143.504 160.899 142.905 161.523C142.306 162.147 141.577 162.638 140.768 162.962C139.958 163.287 139.087 163.437 138.213 163.403C137.339 163.369 136.483 163.152 135.702 162.766C134.921 162.38 134.234 161.834 133.688 161.166C133.141 160.497 132.748 159.721 132.534 158.891C131.328 155.946 133.205 154.062 136.06 152.866Z" fill="white"/>
<path d="M143.64 186.671L155.888 181.759L144.341 154.147L132.092 159.058L143.64 186.671Z" fill="#FFD465"/>
<path d="M133.724 152.717L138.503 150.803L135.511 146.528L132.793 147.619L133.724 152.717Z" fill="#263238"/>
<path opacity="0.7" d="M133.724 152.717L138.503 150.803L135.511 146.528L132.793 147.619L133.724 152.717Z" fill="white"/>
<path d="M132.427 159.728L144.441 154.899C144.744 154.78 144.986 154.548 145.115 154.253C145.244 153.959 145.248 153.627 145.128 153.33V153.33C145.066 153.182 144.975 153.048 144.86 152.935C144.745 152.823 144.609 152.733 144.458 152.672C144.308 152.611 144.147 152.579 143.984 152.579C143.821 152.579 143.66 152.611 143.51 152.672L131.495 157.501C131.345 157.56 131.209 157.647 131.094 157.758C130.979 157.87 130.887 158.002 130.825 158.148C130.762 158.294 130.73 158.451 130.73 158.609C130.73 158.767 130.762 158.924 130.824 159.07C130.884 159.217 130.974 159.351 131.087 159.464C131.201 159.576 131.336 159.666 131.485 159.727C131.634 159.788 131.794 159.82 131.956 159.82C132.117 159.82 132.277 159.789 132.427 159.728V159.728Z" fill="#263238"/>
<path opacity="0.5" d="M132.427 159.728L144.441 154.899C144.744 154.78 144.986 154.548 145.115 154.253C145.244 153.959 145.248 153.627 145.128 153.33V153.33C145.066 153.182 144.975 153.048 144.86 152.935C144.745 152.823 144.609 152.733 144.458 152.672C144.308 152.611 144.147 152.579 143.984 152.579C143.821 152.579 143.66 152.611 143.51 152.672L131.495 157.501C131.345 157.56 131.209 157.647 131.094 157.758C130.979 157.87 130.887 158.002 130.825 158.148C130.762 158.294 130.73 158.451 130.73 158.609C130.73 158.767 130.762 158.924 130.824 159.07C130.884 159.217 130.974 159.351 131.087 159.464C131.201 159.576 131.336 159.666 131.485 159.727C131.634 159.788 131.794 159.82 131.956 159.82C132.117 159.82 132.277 159.789 132.427 159.728V159.728Z" fill="white"/>
<path d="M135.159 149.488C135.404 150.071 135.877 150.415 136.213 150.28C136.548 150.146 136.64 149.563 136.396 148.995C136.152 148.427 135.694 148.068 135.342 148.202C134.991 148.337 134.93 148.92 135.159 149.488Z" fill="#263238"/>
<path d="M141.189 173.272C141.585 174.098 142.29 174.744 143.158 175.075C144.027 175.407 144.992 175.399 145.854 175.054C146.717 174.708 147.411 174.051 147.793 173.219C148.175 172.386 148.215 171.442 147.906 170.581C147.143 168.757 141.434 164.482 141.434 164.482C141.434 164.482 140.365 171.448 141.189 173.272ZM142.136 172.749C141.745 171.199 141.652 169.593 141.861 168.01C141.861 168.01 141.968 173.526 145.189 174.393C145.189 174.393 142.777 174.647 142.136 172.749Z" fill="white"/>
<path opacity="0.2" d="M90.2469 210.689C90.2469 210.689 86.9342 218.433 73.4543 213.873C73.4543 213.873 78.3242 219.091 86.5831 215.951C91.7735 213.963 90.2469 210.689 90.2469 210.689Z" fill="black"/>
</g>
<defs>
<linearGradient id="paint0_linear_34:5696" x1="230.94" y1="9.28924" x2="373.643" y2="553.156" gradientUnits="userSpaceOnUse">
<stop stop-color="#FF8A00"/>
<stop offset="1" stop-color="#6A23FF" stop-opacity="0"/>
</linearGradient>
<clipPath id="clip0_34:5696">
<rect width="599.876" height="393.241" fill="white" transform="translate(0 87.2686)"/>
</clipPath>
</defs>
</svg>
